/* XPM */
static char * Grass_xpm[] = {
"60 60 6 1",
" 	c #72751B",
".	c #7F8226",
"+	c #787B21",
"@	c #656C17",
"#	c #7F8124",
"$	c #686F16",
"                                                            ",
"                                                            ",
"                                                  ..        ",
"                                                   .+    .  ",
"                     .                             +++ +.   ",
"                ..+  ++                         .++@++++@   ",
"                 .++ @+  .                       +++@@++@   ",
"                 @+++@ ++@                       @++  +@    ",
"                .+@++  ++@                        @+        ",
"                @++@+  @@                                   ",
"                 @+@@                                       ",
"                                                            ",
"                                                            ",
"                                                            ",
"                                                            ",
"                                                            ",
"                                                            ",
"                                                            ",
"                                                            ",
"                                                            ",
"                                                            ",
" ..                                                         ",
"  .++   ..                                                  ",
"  @++  +.                                                   ",
"   @@ +++                                                   ",
"      ++@                                                   ",
"      @@                                                    ",
"                                                            ",
"                                                            ",
"                                                            ",
"                                                            ",
"         +.                                                 ",
"          ..                                                ",
"          +++                                               ",
"          @++@++..                                          ",
"           @@+++                                            ",
"             ++@                                            ",
"             +@                                             ",
"                                                            ",
"                                                            ",
"                                             #              ",
"                       .                    ++  #++         ",
"                      .                  #  +$ +##          ",
"                     ++                   #+$ ++#$          ",
"                     ++@                 $++  ++$+#         ",
"                     @@+.                 $+  +$++$         ",
"                       ++                  $  $$+$          ",
"                       @@                                   ",
"                                                            ",
"  ..     .                                                  ",
"   .++ +.                                                   ",
"+..@+@++@                                                   ",
" .++@@++@                                                   ",
" @++  +@                         +##                        ",
"  @+                              #++                       ",
"                                  $++                       ",
"                                   $$                       ",
"                                                            ",
"                                                            ",
"                                                            "};
