/* XPM */
static char *apple[] = {
/* columns rows colors chars-per-pixel */
"50 50 59 1 ",
"  c #754C60",
". c #5F7A79",
"X c #767076",
"o c #7A7478",
"O c #845165",
"+ c #91576A",
"@ c #8A4A70",
"# c #925070",
"$ c #965472",
"% c #9B5875",
"& c #A35B70",
"* c #A35D74",
"= c #8E7965",
"- c #9C7870",
"; c #A06673",
": c #A76175",
"> c #AB6374",
", c #AC6475",
"< c #AF6776",
"1 c #AC6E73",
"2 c #B46C79",
"3 c #B76F7A",
"4 c #AF7C73",
"5 c #BD757E",
"6 c #64837A",
"7 c #67847B",
"8 c #698D7B",
"9 c #6E967C",
"0 c #7F9876",
"q c #71977D",
"w c #7C9879",
"e c #8E9174",
"r c #AD8370",
"t c #A68B71",
"y c #A89770",
"u c #A7A76B",
"i c #AFB66C",
"p c #AEA670",
"a c #B6AC70",
"s c #A0B673",
"d c #B4B570",
"f c #BAB970",
"g c #A4C263",
"h c #ADC867",
"j c #B0CA69",
"k c #B4CC6A",
"l c #B7CE6C",
"z c #BAD06D",
"x c #BDD26F",
"c c #BDC770",
"v c #B5CA71",
"b c #C0D470",
"n c #C37D84",
"m c #769980",
"M c #82A884",
"N c #C68187",
"B c #C78389",
"V c #D08E91",
"C c #D99A9A",
/* pixels */
"bbbbbbbbbbbbbbbbbbbbbbbbbbbbbbbbbbbbbbbbbbbbbbbbbb",
"bbbbbbbbbbbbbbbbbbbbbbbbbbbbbblzbzlbbbbbbbbbbbbbbb",
"bbbbbbbbbbbbbbbbbbbbbbbbbbbbbbghbhgbbbbbbbbbbbbbbb",
"bbbbbbbbbbbbbbbhkbkhbbbbbbbbbblkhklbbbbbbbbbbbbbbb",
"bbbbbbbbbbbbbbbghbhgbbbbbbbbbbblglbbbbbbbbbbbbbbbb",
"bbbbbbbbbbbbbbbblglbbbbbbbbbbbbbbbbbbbbbbbbbbbbbbb",
"bbbbbbbbbbbbbbbbzhzbbbbbbbbbbbbbbbbbbbbbbbbbbbbbbb",
"bbbbbbbbbbbbbbbbbbbbbbbbbbbbbbbbbbbbbbbbbbbbbbbbbb",
"bbbbbbbbbbbbbbbbbbbbbbbbbbbbbbbbbbbbbbbbbbbbbbbbbb",
"bbbbbbbbbbbbbbbbbbbbbbbbbbbbbbbbbbbbbbbbbbbbbbbbbb",
"bbbbbbbbbbbbbbbbbbbbbbbbbbbbbbbbbbbbbbbbbbbbbbbbbb",
"bbbbbbbbbbbbbbbbbbbbbbbbbbbbbbbbbbbbbbbbbbbbbbbbbb",
"bbbbbbbbbbbbbbbbbbbbbbbbbbbbbbbbbbbbbbbbbbbbbbbbbb",
"bbbbbbbbbbbbbbbbbbbbbbbbbbbbbbbbbbbbbbbbbbbkhbzhzb",
"bbbbbbbbbbbbbbbbbbbbbbbbbbbbbbbbbbbbbbbbbbbhgblglb",
"bbbbbghbhgbbbbbbbbbbbbbbbbbb0....sbbbbbbbbbbbghbbb",
"bbbbbhjljhbbbbbbbbbbbbbiubvsw887.sbbbbbbbbbbbhkbbb",
"bbbbbblgkbbbbbbbbbbbbbb= bs.mMMm.sbbbbbbbbbbbbbbbb",
"bbbbbbxlxbbbbbbbbbbbbbb= eq8qmMm.sbbbbbbbbbbbbbbbb",
"bbbbbbbbbbbbbbbbbbbbbbb= .69q9Mm.sbbbbbbbbbbbbbbbb",
"bbbbbbbbbbbbbbbbbbr&&&&O ......0bhgblglbbbbbbbbbbb",
"bbbbbbbbbbbbbbbbca4,,,,+OXXoooXebkhlkhzbbbbbbbbbbb",
"bbbbbbbbbbbbbbbba&25555,**>,<<&rbbbghbbbbbbbbbbbbb",
"bbbbbbbbbbbbbbb442BV55522>,<<,>1rfblzbbbbbbbbbbbbb",
"bbbbbbbbbbbbbbb&>5VC55555<<<<<<>&abbbbbbbbbbbbbbbb",
"bbbbbbbbbbbbbbb&>5555NCN5<<<<<<*@pbbbbbbbbbbbbbbbb",
"bbbbbbbbbbbbbbb&>5555nVn5<<<<<<*@pbbbbbbbbbbbbbbbb",
"bbbbbbbbbbbbbbb*>55555555<<<<<<*@pbbbbbbbbbbbbbbbb",
"bbbbbbbbbbbbbbb+%55555532<<<<<<*@pbbbbbbbbbbbbbbbb",
"bbbbbbbbbbbbbbb@%5555552<<<<<<<*@pbbbbbbbbbbbbbbbb",
"bbbbbbbbbbbbbbbbp@:<<<<<<<<<<<@-bbbbbbbbbbbbbbbbbb",
"bbbbbbbbbbbbbbbbi-;:<<<:*<<<:*-ybbbbbbbbbbbbbbbbbb",
"bbbbbbbbbbbbbbbbbb-@<<<$@<<<$@bbbbbbbbbbbbbbbbbbbb",
"bbbbbbbbbbbbbbbbbbdp$$$tp$$$tpbbbbbbbbbbbbbbbbbbbb",
"bbbbbbbbbbbbbbbbbbbb@@@pb@@@pbbbbbbbbbbbbbbbbbbbbb",
"bbbbbbbbbbbbbbbbbbbbbbbbbbbbbbbbbbbbbbbbbbbbbbbbbb",
"bbbbbbbbbbbbbbbbbbbbbbbbbbbbbbbbbbbbbbbbbbbbbbbbbb",
"bbbbbbbbbbbbbbbbbbbbbbbbbbbbbbbbbbbbbbbbbbbbbbbbbb",
"bzhzbhkbbbbbbbbbbbbbbbbbbbbbbbbbbbbbbbbbbbbbbbbbbb",
"blglbghbbbbbbbbbbbbbbbbbbbbbbbbbbbbbbbbbbbbbbbbbbb",
"bbbhgbbbbbbbbbbbbbbbbbbbbbbbbbbbbbbbbbbbghbhgbbbbb",
"bbbkhbbbbbbbbbbbbbbbbbbbbbbbbbbbbbbbbbbbhjljhbbbbb",
"bbbbbbbbbbbbbbbbbbbbbbbbbbbbbbbbbbbbbbbbblglbbbbbb",
"bbbbbbbbbbbbbbbbbbbbbbbbbbbbbbbbbbbbbbbbbxlxbbbbbb",
"bbbbbbbbbbbbbbbbbbbbbbbbbbbbbbbbbbbbbbbbbbbbbbbbbb",
"bbbbbbbbbbblglbghbbbbbbbbbbbbbbbbbbbbbbbbbbbbbbbbb",
"bbbbbbbbbbbzhklhkbbbbbbbbbbbbbbbbbbbbbbbbbbbbbbbbb",
"bbbbbbbbbbbbbhgbbbbbbbbbbbbbbbbbbbbbbbbbbbbbbbbbbb",
"bbbbbbbbbbbbbzlbbbbbbbbbbbbbbbbbbbbbbbbbbbbbbbbbbb",
"bbbbbbbbbbbbbbbbbbbbbbbbbbbbbbbbbbbbbbbbbbbbbbbbbb"
};
