/* XPM */
static char *bed[] = {
/* columns rows colors chars-per-pixel */
"100 100 52 1 ",
"  c #90625D",
". c #996A5C",
"X c #A1715A",
"o c #AA7959",
"O c #AD7D5B",
"+ c #A17562",
"@ c #BD757E",
"# c #97825F",
"$ c #B3845F",
"% c #9A8460",
"& c #A08060",
"* c #A08863",
"= c #A68865",
"- c #B38767",
"; c #A49D65",
": c #BF8178",
"> c #BB9974",
", c #9DA261",
"< c #AAAA67",
"1 c #ABA168",
"2 c #B0AE6A",
"3 c #C49A6C",
"4 c #C28E72",
"5 c #C1A47D",
"6 c #A4C263",
"7 c #ADC867",
"8 c #BBC76E",
"9 c #B0CA69",
"0 c #B4CC6A",
"q c #B7CE6C",
"w c #BAD06D",
"e c #BDD26F",
"r c #C0D470",
"t c #C27B83",
"y c #C48283",
"u c #C58681",
"i c #C98E82",
"p c #C78288",
"a c #CC888D",
"s c #CC9285",
"d c #D29A8B",
"f c #D08E91",
"g c #D59496",
"h c #D99A9A",
"j c #CDB990",
"k c #D0BD92",
"l c #D5C496",
"z c #D6C99C",
"x c #DED9AB",
"c c #E4E0B0",
"v c #EAE8B4",
"b c #F0EFB9",
/* pixels */
"rrrrrrrrrrrrrrrrrrrrrrrrrrrrrrrrrrrrrrrrrrrrrrrrrrrrrrrrrrrrrrrrrrrrrrrrrrrrrrrrrrrrrrrrrrrrrrrrrrrr",
"rrrrrrrrrrrrrrrrrrrrrrrrrrrrrrrrrrrrrrrrrrrrrrrrrrrrrrrrrrrrrrrrrrrrrrrrrrrrrrrrrrrrrrrrrrrrrrrrrrrr",
"rrrrrrrrrrrrrrrrrrrrrrrrrrrrrrrrrrrrrrrrrrrrrrrrrrrrrrrrrrrrrrrrrrrererrrrrrrrrrrrrrrrrrrrrrrrrrrrrr",
"rrrrrrrrrrrrrrrrrrrrrrrrrrrrrrrrrrrrrrrrrrrrrrrrrrrrrrrrrrrr777wrrw797rrrrrrrrrrrrrrrrrrrrrrrrrrrrrr",
"rrrrrrrrrrrrrrrrrrrrrrrrrrrrrrrrrrrrrrrrrrrrrrrrrrrrrrrrrrrr666qrrw666rrrrrrrrrrrrrrrrrrrrrrrrrrrrrr",
"rrrrrrrrrrrrrrrrrrrrrrrrrrrrrrrrrrrrrrrrrrrrrrrrrrrrrrrrrrrr666qreq666rrrrrrrrrrrrrrrrrrrrrrrrrrrrrr",
"rrrrrrrrrrrrrrrrrrrrrrrrrrrrrrqqqerreqqqrrrrrrrrrrrrrrrrrrrr7770qq0997rrrrrrrrrrrrrrrrrrrrrrrrrrrrrr",
"rrrrrrrrrrrrrrrrrrrrrrrrrrrrrr666qrrq666rrrrrrrrrrrrrrrrrrrrrrr7667rrerrrrrrrrrrrrrrrrrrrrrrrrrrrrrr",
"rrrrrrrrrrrrrrrrrrrrrrrrrrrrrr666qrrq666rrrrrrrrrrrrrrrrrrrrrrr7669rrrrrrrrrrrrrrrrrrrrrrrrrrrrrrrrr",
"rrrrrrrrrrrrrrrrrrrrrrrrrrrrrr666qrrq666rrrrrrrrrrrrrrrrrrrrrrr7667errrrrrrrrrrrrrrrrrrrrrrrrrrrrrrr",
"rrrrrrrrrrrrrrrrrrrrrrrrrrrrrrrrr7667rrrrrrrrrrrrrrrrrrrrrrrrrrrrrrrrrrrrrrrrrrrrrrrrrrrrrrrrrrrrrrr",
"rrrrrrrrrrrrrrrrrrrrrrrrrrrrrrrrr7667rrrrrrrrrrrrrrrrrrrrrrrrrrrrrrrrrrrrrrrrrrrrrrrrrrrrrrrrrrrrrrr",
"rrrrrrrrrrrrrrrrrrrrrrrrrrrrrrrrr7667rrrrrrrrrrrrrrrrrrrrrrrrrrrrrrrrrrrrrrrrrrrrrrrrrrrrrrrrrrrrrrr",
"rrrrrrrrrrrrrrrrrrrrrrrrrrrrrrrrr;##%***rrrrrrrrrrrrrrrrrrrr******1rrrrrrrrrrrrrrrrrrrrrrrrrrrrrrrrr",
"rrrrrrrrrrrrrrrrrrrrrrrrrrrrrrrrr*      rrrrrrrrrrrrrrrrrrrr      *rrrrrrrrrrrrrrrrrrrrrrrrrrrrrrrrr",
"rrrrrrrrrrrrrrrrrrrrrrrrrrrrrrrrr*      rrrrrrrrrrrrrrrrrrrr      *rrrrrrrrrrrrrrrrrrrrrrrrrrrrrrrrr",
"rrrrrrrrrrrrrrrrrrrrrrrrrrrrrr222=++++++22222222222222222222++++X+=222rrrrrrrrrrrrrrrrrrrrrrrrrrrrrr",
"rrrrrrrrrrrrrrrrrrrrrrrrrrrrrr   -333333                    333333-   rrrrrrrrrrrrrrrrrrrrrrrrrrrrrr",
"rrrrrrrrrrrrrrrrrrrrrrrrrrrrrr   -333333                    333333-   rrrrrrrrrrrrrrrrrrrrrrrrrrrrrr",
"rrrrrrrrrrrrrrrrrrrrrrrrrrrrrr   -333333                    333333-   rrrrrrrrrrrrrrrrrrrrrrrrrrrrrr",
"rrrrrrrrrrrrrrrrrrrrrrrrrr2   333$oooooo33333333333333333333oooooo$333   2rrrrrrrrrrrrrrrrrrrrrrrrrr",
"rrrrrrrrrrrrrrrrrrrrrrrrrr2   333$oooooo33333333333333333333oooooo$333   2rrrrrrrrrrrrrrrrrrrrrrrrrr",
"rrrrrrrrrrrrrrrrrrrrrrrrrr2   333$oooooo33333333333333333333oooooo$333   2rrrrrrrrrrrrrrrrrrrrrrrrrr",
"rrrrrrrrrrrrrrrrrrrrrrrrrr2   $$$Ooooooo$$$$$$$$$$$$$$$$$$$$ooooooO$$$   2rrrrrrrrrrrrrrrrrrrrrrrrrr",
"rrrrrrrrrrrrrrrrrrrrrrrrrr2   oooooooooooooooooooooooooooooooooooooooo   2rrrrrrrrrrrrrrrrrrrrrrrrrr",
"rrrrrrrrrrrrrrrrrrrrrrrrrr2   oooooooooooooooooooooooooooooooooooooooo   2rrrrrrrrrrrrrrrrrrrrrrrrrr",
"rrrrrrrrrrrrrrrrrrrrrrrrrr2   oooooooooooooooooooooooooooooooooooooooo   2rrrrrrrrrrrreww0rrrww0wrrr",
"rrrrrrrrrrrrrrrrrrrrrrrrrr2   oooooooooooooooooooooooooooooooooooooooo   2rrrrrrrrrrrr0666rrr7669rrr",
"rrrrrrrrrrrrrrrrrrrrrrrrrr2   oooooooooooooooooooooooooooooooooooooooo   2rrrrrrrrrrrrw666rrr7667err",
"rrrrrrrrrrrrrrrrrrrrrrrrrr2   oooooooooooooooooooooooooooooooooooooooo   2rrrrrrrrrrrr0666rrr7669rrr",
"rrrrrrrrrr666qrrq666rrrrrr2   oooooo>xxxxxxxxxxxxxxxxxxxxxxxxxx>oooooo   2rrrrrrrrrrrrrrrr666wrrerrr",
"rrrrrrrrrr666qrrq666rrrrrr2   oooooo>xxxxxxxxxxxxxxxxxxxxxxxxxx>oooooo   2rrrrrrrrrrrrrrrr6660rrrrrr",
"rrrrrrrrrr666qrrq666rrrrrr2   oooooo>xxxxxxxxxxxxxxxxxxxxxxxxxx>oooooo   2rrrrrrrrrrrrrrrr666wrrrrrr",
"rrrrrrrrrrqqq9779qq0rrrrrr2   ooo5jjzvvvvvvvvvvvvvvvvvvvvvvvvvvzjj5ooo   2rrrrrrrrrrrrrrrrw00errrrrr",
"rrrrrrrrrrrrr7667rrrrrrrrr2   ooojxxcbbbbbbbbbbbbbbbbbbbbbbbbbbcxxjooo   2rrrrrrrrrrrrrrrrrrrrrrrrrr",
"rrrrrrrrrrrrr7667rrrrrrrrr2   ooojxxcbbbbbbbbbbbbbbbbbbbbbbbbbbcxxjooo   2rrrrrrrrrrrrrrrrrrrrrrrrrr",
"rrrrrrrrrrrrr0770rrrrrrrrr2   $$$kxxcbbbbbbbbbbbbbbbbbbbbbbbbbbcxxj-$$   2rrrrrrrrrrrrrrrrrrrrrrrrrr",
"rrrrrrrrrrrrrrrrrrrrrrrrrr2   333lxxcbbbbbbbbbbbbbbbbbbbbbbbbbbcxxl333   2rrrrrrrrrrrrrrrrrrrrrrrrrr",
"rrrrrrrrrrrrrrrrrrrrrrrrrr2   333lxxcbbbbbbbbbbbbbbbbbbbbbbbbbbcxxl333   2rrrrrrrrrrrrrrrrrrrrrrrrrr",
"rrrrrrrrrrrrrrrrrrrrrrrrrr2   333lxxcbbbbbbbbbbbbbbbbbbbbbbbbbbcxxl333   2rrrrrrrrrrrrrrrrrrrrrrrrrr",
"rrrrrrrrrrrrrrrrrrrrrrrrrr2   333:@@taaaaaaaaaaaaaaaaaaaaaaaaaat@@:333   ,667rrrrrrrrrrrrrrrrrrrrrrr",
"rrrrrrrrrrrrrrrrrrrrrrrrrr2   333:@@taaaaaaaaaaaaaaaaaaaaaaaaaat@@:333   ,667rrrrrrrrrrrrrrrrrrrrrrr",
"rrrrrrrrrrrrrrrrrrrrrrrrrr2   333:@@taaaaaaaaaaaaaaaaaaaaaaaaaat@@:333   ,667rrrrrrrrrrrrrrrrrrrrrrr",
"rrrrrrrrrrrrrrrrrrrrrrrrrr2   :::yppaggggggggggggggggggggggggggappu:::   <qqwrrrrrrrrrrrrrrrrrrrrrrr",
"rrrrrrrrrrrrrrrrrrrrrrrrrr2   @@@paafhhhhhhhhhhhhhhhhhhhhhhhhhhfaap@@@   2rrrrrrrrrrrrrrrrrrrrrrrrrr",
"rrrrrrrrrrrrrrrrrrrrrrrrrr2   @@@paafhhhhhhhhhhhhhhhhhhhhhhhhhhfaap@@@   2rrrrrrrrrrrrrrrrrrrrrrrrrr",
"rrrrrrrrrrrrrrrrrrrrrrrrrr2   @@@paafhhhhhhhhhhhhhhhhhhhhhhhhhhfaap@@@   2rrrrrrrrrrrrrrrrrrrrrrrrrr",
"rrrrrrrrrrrrrrrrrrrrrrrrrr2   @@@paafhhhhhhhhhhhhhhhhhhhhhhhhhhfaap@@@   2rrrrrrrrrrrrrrrrrrrrrrrrrr",
"rrrrrrrrrrrrrrrrrrrrrrrrrr2   @@@paafhhhhhhhhhhhhhhhhhhhhhhhhhhfaap@@@   2rrrrrrrrrrrrrrrrrrrrrrrrrr",
"rrrrrrrrrrrrrrrrrrrrrrrrrr2   @@@paafhhhhhhhhhhhhhhhhhhhhhhhhhhfaap@@@   2rrrrrrrrrrrrrrrrrrrrrrrrrr",
"rrrrrrrrrrrrrrrrrrrrrrrrrr2   @@@paafhhhhhhhhhhhhhhhhhhhhhhhhhhfaap@@@   2rrrrrrrrrrrrrrrrrrrrrrrrrr",
"rrrrrrrrrrrrrrrrrrrrrrrrrr2   @@@paafhhhhhhhhhhhhhhhhhhhhhhhhhhfaap@@@   2rrrrrrrrrrrrrrrrrrrrrrrrrr",
"rrrrrrrrrrrrrrrrrrrrrrrrrr2   @@@paafhhhhhhhhhhhhhhhhhhhhhhhhhhfaap@@@   2rrrrrrrrrrrrrrrrrrrrrrrrrr",
"rrrrrrrrrrrrrrrrrrrrrrrrrr2   @@@paafhhhhhhhhhhhhhhhhhhhhhhhhhhfaap@@@   2rrrrrrrrrrrrrrrrrrrrrrrrrr",
"rrrrrrrrrrrrrrrrrrrrrrrrrr2   @@@paafhhhhhhhhhhhhhhhhhhhhhhhhhhfaap@@@   2rrrrrrrrrrrrrrrrrrrrrrrrrr",
"rrrrrrrrrrrrrrrrrrrrrrrrrr2   @@@paafhhhhhhhhhhhhhhhhhhhhhhhhhhfaap@@@   2rrrrrrrrrrrrrrrrrrrrrrrrrr",
"rrrrrrrrrrrrrrrrrrrrrrrrrr2   @@@paafhhhhhhhhhhhhhhhhhhhhhhhhhhfaap@@@   2rrrrrrrrrrrrrrrrrrrrrrrrrr",
"rrrrrrrrrrrrrrrrrrrrrrrrrr2   @@@paafhhhhhhhhhhhhhhhhhhhhhhhhhhfaap@@@   2rrrrrrrrrrrrrrrrrrrrrrrrrr",
"rrrrrrrrrrrrrrrrrrrrrrrrrr2   @@@paafhhhhhhhhhhhhhhhhhhhhhhhhhhfaap@@@   2rrrrrrrrrrrrrrrrrrrrrrrrrr",
"rrrrrrrrrrrrrrrrrrrrrrrrrr2   @@@paafhhhhhhhhhhhhhhhhhhhhhhhhhhfaap@@@   2rrrrrrrrrrrrrrrrrrrrrrrrrr",
"rrrrrrrrrrrrrrrrrrrrrrrrrr2   @@@paafhhhhhhhhhhhhhhhhhhhhhhhhhhfaap@@@   2rrrrrrrrrrrrrrrrrrrrrrrrrr",
"rrrrrrrrrrrrrrrrrrrrrrrrrr2   @@@paafhhhhhhhhhhhhhhhhhhhhhhhhhhfaap@@@   2rrrrrrrrrrrrrrrrrrrrrrrrrr",
"rrrrrrrrrrrrrrrrrrrrrrrrrr2   @@@paafhhhhhhhhhhhhhhhhhhhhhhhhhhfaap@@@   2rrrrrrrrrrrrrrrrrrrrrrrrrr",
"rrrrrrrrrrrrrrrrrrrrrrrrrr2   @@@paafhhhhhhhhhhhhhhhhhhhhhhhhhhfaap@@@   2rrrrrrrrrrrrrrrrrrrrrrrrrr",
"rrrrrrrrrrrrrrrrrrrrrrrrrr2   @@@paafhhhhhhhhhhhhhhhhhhhhhhhhhhfaattt@   2rrrrrrrrrrrrrrrrrrrrrrrrrr",
"rrrrrrrrrrrrrrrrrrrrrrrrrr2   @@@paafhhhhhhhhhhhhhhhhhhhhhhhhhhfaat@@@   2rrrrrrrrrrrrrrrrrrrrrrrrrr",
"rrrrrrrrrrrrrrrrrrrrrrrrrr2   @@tti4sdddhhhhhhhhhhhhhhhhhhhhdddsii4@@@   2rrrrrrrrrrrrrrrrrrrrrrrrrr",
"rrrrrrrrrrrrrrrrrrrrrrrrrr2   @@t4333333hhhhhhhhhhhhhhhhhhhh3333334t@@   2rrrrrrrrrrrrrrrrrrrrrrrrrr",
"rrrrrrrrrrrrrrrrrrrrrrrrrr2   @@@4333333hhhhhhhhhhhhhhhhhhhh3333334@@@   2rrrrrrrrrrrrrrrrrrrrrrrrrr",
"rrrrrrrrrrrrrrrrrrrrrrrrrr2   @@@4333333hhhhhhhhhhhhhhhhhhhh3333334@@@   2rrrrrrrrrrrrrrrrrrrrrrrrrr",
"rrrrrrrrrrrrrrrrrrrrrrrrrr2   333$oooooo33333333333333333333ooooooO333   2rrrrrrrrrrrrrrrrrrrrrrrrrr",
"rrrrrrrrrrrrrrrrrrrrrrrrrr2   333$oooooo33333333333333333333oooooo-334   2rrrrrrrrrrrrrrrrrrrrrrrrrr",
"rrrrrrrrrrrrrrrrrrrrrrrrrr2   333$oooooo33333333333333333333oooooo$333   2rrrrrrrrrrrrrrrrrrrrrrrrrr",
"rrrrrrrrrrrrrrrrrrrrrrrrrr2   $-$Ooooooo$$$$$$$$$$$$$$$$$$$$ooooooO$$$   2rrrrrrrrrrrrrrrrrrrrrrrrrr",
"rrrrrrrrrrrrrrrrrrrrrrrrrr2   oooooooooooooooooooooooooooooooooooooooo   2rrrrrrrrrrrrrrrrrrrrrrrrrr",
"rrrrrrrrrrrrrrrrrrrrrrrrrr2   oooooooooooooooooooooooooooooooooooooooo   2rrrrrrrrrrrrrrrrrrrrrrrrrr",
"rrrwqqwrrrqqqerrrrrrrrrrrr2   oooooooooooooooooooooooooooooooooooooooo   2rrrrrrrrrrrrrrrrrrrrrrrrrr",
"rrr7667rrr666qrrrrrrrrrrrr2   oooooooooooooooooooooooooooooooooooooooo   2rrrrrrrrrrrrrrrrrrrrrrrrrr",
"rrr7667rrr666qrrrrrrrrrrrr2   oooooooooooooooooooooooooooooooooooooooo   2rrrrrrrrrrrrrrrrrrrrrrrrrr",
"rrr7667rrr666qrrrrrrrrrrrr2   oooooooooooooooooooooooooooooooooooooooo   2rrrrrrrrrrrrrrrrrrrrrrrrrr",
"rrrrrrq666rrrrrrrrrrrrrrrr2   ooooooX                          Xoooooo  .2rrrrrr666wrrw666rrrrrrrrrr",
"rrrrrrq666rrrrrrrrrrrrrrrr2   ooooooX                          Xoooooo   2rrrrrr666qrrw666rrrrrrrrrr",
"rrrrrrq666rrrrrrrrrrrrrrrr2   ooooooX                          Xoooooo   2rrrrrr626qeeq666errrrrrrrr",
"rrrrrrrqqqrrrrrrrrrrrrrrrr8222......&22222222222222222222222222&......2220rrrrrrqqq0779wqqerrrrrrrrr",
"rrrrrrrrrrrrrrrrrrrrrrrrrrrrrr      *rrrrrrrrrrrrrrrrrrrrrrrrrr*      rrrrrrrrrreee9669errrrrrrrrrrr",
"rrrrrrrrrrrrrrrrrrrrrrrrrrrrrr      *rrrrrrrrrrrrrrrrrrrrrrrrrr*      rrrrrrrrrrree9669rrrrrrrrrrrrr",
"rrrrrrrrrrrrrrrrrrrrrrrrrrrrrr******1rrrrrrrrrrrrrrrrrrrrrrrrrr1******rrrrrrrrrrrrrq99qrrrrrrrrrrrrr",
"rrrrrrrrrrrrrrrrrrrrrrrrrrrrrrrrrrrrrrrrrrrrrrrrrrrrrrrrrrrrrrrrrrrrrrrrrrrrrrrrrrrreeeerrrrrrrrrrrr",
"rrrrrrrrrrrrrrrrrrrrrrrrrrrrrrrrrrrrrrrrrrrrrrrrrrrrrrrrrrrrrrrrrrrrrrrrrrrrrrrrrrrrrrrrrrrrrrrrrrrr",
"rrrrrrrrrrrrrrrrrrrrrrrrrrrrrrrrrrrrrrrrrrrrrrrrrrrrrrrrrrrrrrrrrrrrrrrrrrrrrrrrrrrrrrrrrrrrrrrrrrrr",
"rrrrrrrrrrrrrrrrrrrrrrr7667rrr666qrrrrrrrrrrrrrrrrrrrrrrrrrrrrrrrrrrrrrrrrrrrrrrrrrrrrrrrrrrrrrrrrrr",
"rrrrrrrrrrrrrrrrrrrrrrr7667rrr666qrrrrrrrrrrrrrrrrrrrrrrrrrrrrrrrrrrrrrrrrrrrrrrrrrrrrrrrrrrrrrrrrrr",
"rrrrrrrrrrrrrrrrrrrrrrr7667rrr666qrrrrrrrrrrrrrrrrrrrrrrrrrrrrrrrrrrrrrrrrrrrrrrrrrrrrrrrrrrrrrrrrrr",
"rrrrrrrrrrrrrrrrrrrrrrrqqq0777qqqrrrrrrrrrrrrrrrrrrrrrrrrrrrrrrrrrrrrrrrrrrrrrrrrrrrrrrrrrrrrrrrrrrr",
"rrrrrrrrrrrrrrrrrrrrrrrrrrq666rrrrrrrrrrrrrrrrrrrrrrrrrrrrrrrrrrrrrrrrrrrrrrrrrrrrrrrrrrrrrrrrrrrrrr",
"rrrrrrrrrrrrrrrrrrrrrrrrrrq666rrrrrrrrrrrrrrrrrrrrrrrrrrrrrrrrrrrrrrrrrrrrrrrrrrrrrrrrrrrrrrrrrrrrrr",
"rrrrrrrrrrrrrrrrrrrrrrrrrrq777rrrrrrrrrrrrrrrrrrrrrrrrrrrrrrrrrrrrrrrrrrrrrrrrrrrrrrrrrrrrrrrrrrrrrr",
"rrrrrrrrrrrrrrrrrrrrrrrrrrrrrrrrrrrrrrrrrrrrrrrrrrrrrrrrrrrrrrrrrrrrrrrrrrrrrrrrrrrrrrrrrrrrrrrrrrrr",
"rrrrrrrrrrrrrrrrrrrrrrrrrrrrrrrrrrrrrrrrrrrrrrrrrrrrrrrrrrrrrrrrrrrrrrrrrrrrrrrrrrrrrrrrrrrrrrrrrrrr",
"rrrrrrrrrrrrrrrrrrrrrrrrrrrrrrrrrrrrrrrrrrrrrrrrrrrrrrrrrrrrrrrrrrrrrrrrrrrrrrrrrrrrrrrrrrrrrrrrrrrr"
};
