/* XPM */
static char *bed[] = {
/* columns rows colors chars-per-pixel */
"50 50 51 1 ",
"  c #90625D",
". c #996A5C",
"X c #A1715A",
"o c #AA7959",
"O c #A17562",
"+ c #BD757E",
"@ c #C07F7C",
"# c #97825F",
"$ c #9A8460",
"% c #A08060",
"& c #A08863",
"* c #A68865",
"= c #B08462",
"- c #B38767",
"; c #B68861",
": c #BB8F66",
"> c #BB9974",
", c #9DA261",
"< c #AAAA67",
"1 c #ABA168",
"2 c #B0AE6A",
"3 c #C49A6C",
"4 c #C28E72",
"5 c #C28878",
"6 c #C79477",
"7 c #CA987A",
"8 c #CB9A7B",
"9 c #C7A87D",
"0 c #A4C263",
"q c #ADC867",
"w c #B4C36B",
"e c #BBC76E",
"r c #B0CA69",
"t c #B4CC6A",
"y c #B7CE6C",
"u c #BAD06D",
"i c #BDD26F",
"p c #C0D470",
"a c #C27B83",
"s c #C78288",
"d c #CC888D",
"f c #D08E91",
"g c #D59496",
"h c #D99A9A",
"j c #CDAF81",
"k c #CDB990",
"l c #D6C99C",
"z c #DED9AB",
"x c #E4E0B0",
"c c #EAE8B4",
"v c #F0EFB9",
/* pixels */
"pppppppppppppppppppppppppppppppppppppppppppppppppp",
"ppppppppppppppppppppppppppppppyupuyppppppppppppppp",
"pppppppppppppppppppppppppppppp0qpq0ppppppppppppppp",
"pppppppppppppppqtptqppppppppppytqtyppppppppppppppp",
"ppppppppppppppp0qpq0pppppppppppy0ypppppppppppppppp",
"ppppppppppppppppy0yppppppppppppppppppppppppppppppp",
"ppppppppppppppppw,<2pppppppppp222epppppppppppppppp",
"pppppppppppppppp2   pppppppppp   2pppppppppppppppp",
"ppppppppppppppp&*---&&&&&&&&&&---*&ppppppppppppppp",
"ppppppppppppppp O333          333O ppppppppppppppp",
"ppppppppppppp& 3:ooo3333333333ooo:3 &ppppppppppppp",
"ppppppppppppp& :;ooo::::::::::ooo;: &ppppppppppppp",
"ppppppppppppp& oooooooooooooooooooo &ppppppppppppp",
"ppppppppppppp& oooooooooooooooooooo &pppppptqpuqup",
"ppppppppppppp& oooooooooooooooooooo &ppppppq0py0yp",
"ppppp0qpq0ppp& oookzzzzzzzzzzzzkooo &pppppppp0qppp",
"pppppqryrqppp& o=>lxxxxxxxxxxxxl>=o &ppppppppqyppp",
"ppppppy0tpppp& o>zcvvvvvvvvvvvvcz>o &ppppppppppppp",
"ppppppiyipppp& :9zcvvvvvvvvvvvvcz9: &ppppppppppppp",
"ppppppppppppp& 3jzcvvvvvvvvvvvvcz93 &ppppppppppppp",
"ppppppppppppp& 34+sdddddddddddds+63 #0uppppppppppp",
"ppppppppppppp& 45adffffffffffffda54 #quppppppppppp",
"ppppppppppppp& +adghhhhhhhhhhhhgda+ &ppppppppppppp",
"ppppppppppppp& +adghhhhhhhhhhhhgda+ &ppppppppppppp",
"ppppppppppppp& +adghhhhhhhhhhhhgda+ &ppppppppppppp",
"ppppppppppppp& +adghhhhhhhhhhhhgda+ &ppppppppppppp",
"ppppppppppppp& +adghhhhhhhhhhhhgda+ &ppppppppppppp",
"ppppppppppppp& +adghhhhhhhhhhhhgda+ &ppppppppppppp",
"ppppppppppppp& +adghhhhhhhhhhhhgda+ &ppppppppppppp",
"ppppppppppppp& +adghhhhhhhhhhhhgda+ &ppppppppppppp",
"ppppppppppppp& +adghhhhhhhhhhhhgda+ &ppppppppppppp",
"ppppppppppppp& +adghhhhhhhhhhhhgda+ &ppppppppppppp",
"ppppppppppppp& +adghhhhhhhhhhhhgda+ &ppppppppppppp",
"ppppppppppppp& +@677hhhhhhhhhh8765+ &ppppppppppppp",
"ppppppppppppp& +5333hhhhhhhhhh333@+ &ppppppppppppp",
"ppppppppppppp& 3:ooo3333333333ooo:3 &ppppppppppppp",
"ppppppppppppp& :;ooo::::::::::ooo;: &ppppppppppppp",
"ppppppppppppp& oooooooooooooooooooo &ppppppppppppp",
"puqupqtpppppp& oooooooooooooooooooo &ppppppppppppp",
"py0yp0qpppppp& oooooooooooooooooooo &ppppppppppppp",
"pppq0pppppppp& ooo.            .oo= &ppp2qir0iippp",
"ppptqpppppppp1&XXX%&&&&&&&&&&&&%XXX&<pppqryrqipppp",
"ppppppppppppppp   2pppppppppppp2   pppppiy0ypppppp",
"ppppppppppppppp222eppppppppppppe222pppppiiyipppppp",
"ppppppppppppppppppppppppppppppppippppppppppppppppp",
"pppppppppppy0yp0qpppppppppppppppippppppppppppppppp",
"pppppppppppuqtyqtppppppppppppppppppppppppppppppppp",
"pppppppppppppq0ppppppppppppppppppppppppppppppppppp",
"pppppppppppppuyppppppppppppppppppppppppppppppppppp",
"pppppppppppppppppppppppppppppppppppppppppppppppppp"
};
