/* XPM */
static char *grass[] = {
/* columns rows colors chars-per-pixel */
"100 100 8 1 ",
"  c #A4C263",
". c #ADC867",
"X c #B0CA69",
"o c #B4CC6A",
"O c #B7CE6C",
"+ c #BAD06D",
"@ c #BDD26F",
"# c #C0D470",
/* pixels */
"####################################################################################################",
"####################################################################################################",
"####################################################################################################",
"############################################################...+##+...##############################",
"############################################################   O##O   ##############################",
"############################################################   O##O   ##############################",
"##############################OOO@##@OOO####################...oOOo...##############################",
"##############################   O##O   #######################.  .#################################",
"##############################   O##O   #######################.  .#################################",
"##############################   O##O   #######################.  .#################################",
"#################################.  .###############################################################",
"#################################.  .###############################################################",
"#################################.  .###############################################################",
"#################################+OO+###############################################################",
"####################################################################################################",
"####################################################################################################",
"####################################################################################################",
"####################################################################################################",
"####################################################################################################",
"####################################################################################################",
"####################################################################################################",
"####################################################################################################",
"####################################################################################################",
"####################################################################################################",
"####################################################################################################",
"####################################################################################################",
"######################################################################################@OOO###+OO+###",
"######################################################################################O   ###.  .###",
"######################################################################################O   ###.  .###",
"######################################################################################O   ###.  .###",
"##########   O##O   ######################################################################   O######",
"##########   O##O   ######################################################################   O######",
"##########   O##O   ######################################################################   O######",
"##########OOOX..XOOO######################################################################OOO@######",
"#############.  .###################################################################################",
"#############.  .###################################################################################",
"#############o..o###################################################################################",
"####################################################################################################",
"####################################################################################################",
"####################################################################################################",
"##################################################################O   ###.  .#######################",
"##################################################################O   ###.  .#######################",
"##################################################################O   ###.  .#######################",
"##################################################################@OOO...oOO+#######################",
"######################################################################   O##########################",
"######################################################################   O##########################",
"######################################################################...+##########################",
"####################################################################################################",
"####################################################################################################",
"####################################################################################################",
"####################################################################################################",
"####################################################################################################",
"####################################################################################################",
"##############################...+##+...############################################################",
"##############################   O##O   ############################################################",
"##############################   O##O   ############################################################",
"##############################...oOOo...####################OOO@##@OOO##############################",
"#################################.  .#######################   O##O   ##############################",
"#################################.  .#######################   O##O   ##############################",
"#################################.  .#######################   O##O   ##############################",
"###############################################################.  .#################################",
"###############################################################.  .#################################",
"###############################################################.  .#################################",
"###############################################################+OO+#################################",
"####################################################################################################",
"####################################################################################################",
"####################################################################################################",
"####################################################################################################",
"####################################################################################################",
"####################################################################################################",
"####################################################################################################",
"####################################################################################################",
"####################################################################################################",
"####################################################################################################",
"####################################################################################################",
"####################################################################################################",
"###+OO+###OOO@######################################################################################",
"###.  .###   O######################################################################################",
"###.  .###   O######################################################################################",
"###.  .###   O######################################################################################",
"######O   ######################################################################   O##O   ##########",
"######O   ######################################################################   O##O   ##########",
"######O   ######################################################################   O##O   ##########",
"######@OOO######################################################################OOOX..XOOO##########",
"###################################################################################.  .#############",
"###################################################################################.  .#############",
"###################################################################################o..o#############",
"####################################################################################################",
"####################################################################################################",
"####################################################################################################",
"#######################.  .###   O##################################################################",
"#######################.  .###   O##################################################################",
"#######################.  .###   O##################################################################",
"#######################+OOo...OOO@##################################################################",
"##########################O   ######################################################################",
"##########################O   ######################################################################",
"##########################+...######################################################################",
"####################################################################################################",
"####################################################################################################",
"####################################################################################################"
};
