/* XPM */
static char *grass[] = {
/* columns rows colors chars-per-pixel */
"50 50 8 1 ",
"  c #A4C263",
". c #ADC867",
"X c #B0CA69",
"o c #B4CC6A",
"O c #B7CE6C",
"+ c #BAD06D",
"@ c #BDD26F",
"# c #C0D470",
/* pixels */
"##################################################",
"##############################O+#+O###############",
"############################## .#. ###############",
"###############.o#o.##########Oo.oO###############",
"############### .#. ###########O O################",
"################O O###############################",
"################+.+###############################",
"##################################################",
"##################################################",
"##################################################",
"##################################################",
"##################################################",
"##################################################",
"###########################################o.#+.+#",
"###########################################. #O O#",
"##### .#. ################################### .###",
"#####.XOX.###################################.o###",
"######O O#########################################",
"######@O@#########################################",
"##################################################",
"#################################. #O O###########",
"#################################o.Oo.+###########",
"################################### .#############",
"###################################O+#############",
"##################################################",
"##################################################",
"###############O+#+O##############################",
"############### .#. ##############################",
"###############Oo.oO##########.o#o.###############",
"################O O########### .#. ###############",
"###############################O O################",
"###############################+.+################",
"##################################################",
"##################################################",
"##################################################",
"##################################################",
"##################################################",
"##################################################",
"#+.+#.o###########################################",
"#O O# .###########################################",
"###. ################################### .#. #####",
"###o.###################################.XOX.#####",
"#########################################O O######",
"#########################################@O@######",
"##################################################",
"###########O O# .#################################",
"###########+.oO.o#################################",
"#############. ###################################",
"#############+O###################################",
"##################################################"
};
