/* XPM */
static char *lapinou_right[] = {
/* columns rows colors chars-per-pixel */
"100 100 51 1 ",
"  c #90967E",
". c #94987F",
"X c #9FA77B",
"o c #A4B275",
"O c #AAB678",
"+ c #A4C263",
"@ c #ADC867",
"# c #B0CA69",
"$ c #B4CC6A",
"% c #B7CE6C",
"& c #BBCC6A",
"* c #BAD06D",
"= c #BDD26F",
"- c #C0D470",
"; c #C8D470",
": c #CED873",
"> c #DCDD75",
", c #EAE178",
"< c #5C4E92",
"1 c #65589A",
"2 c #726C8A",
"3 c #7D7B87",
"4 c #6D6097",
"5 c #6D63A2",
"6 c #766DAA",
"7 c #877BAB",
"8 c #888A83",
"9 c #97998B",
"0 c #999C88",
"q c #949095",
"w c #8E85A1",
"e c #A8A1AE",
"r c #C1BBB1",
"t c #C9B4BC",
"y c #E8B5AC",
"u c #C6C2B6",
"i c #C9C0BA",
"p c #C9C6B9",
"a c #D1CEB6",
"s c #ECC9B3",
"d c #EED7B7",
"f c #E5E3BE",
"g c #B2A8C5",
"h c #DDD9C2",
"j c #DDD5DE",
"k c #F3D8C5",
"l c #ECE8CA",
"z c #F3E1C3",
"x c #F3E9C2",
"c c #F3ECC1",
"v c #F3F2C0",
/* pixels */
"----------------------------------------------------------------------------------------------------",
"----------------------------------------------------------------------------------------------------",
"----------------------------------------------------------------------------------------------------",
"------------------------------------------------------------@@@*--*@@@------------------------------",
"------------------------------------------------------------+++%--%+++------------------------------",
"------------------------------------------------------------+++%--%+++------------------------------",
"------------------------------%%%=--=%%%--------------------@@@$%%$@@@------------------------------",
"------------------------------+++%--%+++-----------------------@++@---------------------------------",
"------------------------------+++%--%+++-----------------------@++@---------------------------------",
"------------------------------+++%--%+++-----------------------@++@---------------------------------",
"---------------------------------@++@---------------------------------------------------------------",
"---------------------------------@++@---------------------------------------------------------------",
"---------------------------------@++@---------------------------------------------------------------",
"---------------------------------*%%*---------------------------------------------------------------",
"----------------------------------------------------------------------------------------------------",
"----------------------------------------------------------------------------------------------------",
"----------------------------------------------------------------------------------------------------",
"----------------------------------------------------------------------------------------------------",
"----------------------------------------------------------------------------------------------------",
"----------------------------------------------------------------------------------------------------",
"----------------------------------------------------------------------------------------------------",
"----------------------------------------------------------------------------------------------------",
"----------------------------------------------------------------------------------------------------",
"-------------------------------------------.333333333O----------------------------------------------",
"-------------------------------------------3<<<<<<<<<X----------------------------------------------",
"-------------------------------------------3<<<<<<<<<X----------------------------------------------",
"----------------------------------------XXXqwwwwwwwww0XXO-----------------------------=%%%---*%%*---",
"----------------------------------------<<<rvvvvvvvvvw<<3-----------------------------%+++---@++@---",
"----------------------------------------<<<rvvvvvvvvvw<<3-----------------------------%+++---@++@---",
"----------------------------------------<<<rvvvvvvvvvw<<3-----------------------------%+++---@++@---",
"----------+++%--%+++----------------X<<<vvvsyyyyyyvvvw<<<<<<------------------------------+++%------",
"----------+++%--%+++----------------X<<<vvvsyyyyyyvvvw<<<<<<------------------------------+++%------",
"----------+++%--%+++----------------X<<<vvvsyyyyyyvvvw<<<<<<------------------------------+++%------",
"----------%%%#@@#%%%----------------X<<<vvvsyyyyyyvvvarrrrrr333O--------------------------%%%=------",
"-------------@++@-------------------X<<<vvvsyyyyyyvvvvvvvvvv<<<X------------------------------------",
"-------------@++@-------------------X<<<vvvsyyyyyyvvvvvvvvvv<<<X------------------------------------",
"-------------$@@$-------------------X<<<vvvdssssssvvvvvvvvvv<<<X------------------------------------",
"------------------------------------X<<<vvvvvvvvvvvvvvvvvvvv<<<X------------------------------------",
"------------------------------------X<<<vvvvvvvvvvvvvvvvvvvv<<<X------------------------------------",
"------------------------------------X<<<vvvvvvvvvvvvvvvvvvvv<<<X------------------------------------",
"------------------------------------X<<<vvvvvvvvvvvvvvvvvvvv<<<X--%+++---@++@-----------------------",
"------------------------------------X<<<vvvvvvvvvvvvvvvvvvvv<<<X--%+++---@++@-----------------------",
"------------------------------------X<<<vvvvvvvvvvvvvvvvvvvv<<<X--%+++---@++@-----------------------",
"---------------------------------.332<<<vvvvvvvvvvvvvvvvvvvv<<<233 %%%@@@$%%*-----------------------",
"---------------------------------3<<<<<<vvvvvvvvvvvvvvvvvvvv<<<<<<3---+++%--------------------------",
"---------------------------------3<<<<<<vvvvvvvvvvvvvvvvvvvv<<<<<<3---+++%--------------------------",
"---------------------------------.332<<<vvvvvvvvvvvvvarravvvwww4<<3---@@@*--------------------------",
"------------------------------------X<<<vvvvvvvvvvvvvw<<wvvvvvvw<<3---------------------------------",
"------------------------------------X<<<vvvvvvvvvvvvvw<<wvvvvvvw<<3---------------------------------",
"------------------------------------X<<<vvvvvvvvvvvvvw<<wvvvvvvw<<3---------------------------------",
"---------------------------------3<<<<<<vvvvvvvvvvvvvvvvvvvvvvvw<<3---------------------------------",
"---------------------------------3<<<<<<vvvvvvvvvvvvvvvvvvvvvvvw<<3---------------------------------",
"---------------------------------3<<<<<<vvvvvvvvvvvvvvvvvvvvvvvw<<3---------------------------------",
"------------------------------@@@oXX8<<<vvvvvvczzzzzzcvvvvvvvvvw<<3---------------------------------",
"------------------------------+++%--X<<<vvvvvvxkkkkkkxvvvvvvvvvw<<3---------------------------------",
"------------------------------+++%--X<<<vvvvvvxkkkkkkxvvvvvvvvvw<<3---------------------------------",
"------------------------------@@@$%%o333rrruppittttttipppppprrrq33 %%%------------------------------",
"---------------------------------@++@---<<<56666666666666666<<<X--%+++------------------------------",
"---------------------------------@++@---<<<56666666666666666<<<X--%+++------------------------------",
"---------------------------------@++@---<<<56666666666666666<<<X--%+++------------------------------",
"------------------------------------X<<<jjjlvvp6666666666666,,,&++@---------------------------------",
"------------------------------------X<<<jjjlvvp6666666666666,,,&++@---------------------------------",
"------------------------------------X<<<jjjlvvp6666666666666,,,&++@---------------------------------",
"------------------------------------X<<<jjjlvvfpppppppppe111,,,;%%*---------------------------------",
"------------------------------------X<<<jjjlvvvvvvvvvvvvr<<<,,,:------------------------------------",
"------------------------------------X<<<jjjlvvvvvvvvvvvvr<<<,,,:------------------------------------",
"------------------------------------O333ggghvvvvvvvvvvvvr<<<>>>;------------------------------------",
"----------------------------------------<<<rvvvvvvvvvvvvr<<<----------------------------------------",
"----------------------------------------<<<rvvvvvvvvvvvvr<<<----------------------------------------",
"----------------------------------------<<<rvvvvvvvvvvvvr<<<----------------------------------------",
"-------------------------------------------3<<7jjjjjj7<<3-------------------------------------------",
"-------------------------------------------3<<7jjjjjj7<<3-------------------------------------------",
"-------------------------------------------3<<7jjjjjj7<<3-------------------------------------------",
"-------------------------------------------OXX97777779XXO-------------------------------------------",
"----------------------------------------------X<<<<<<X----------------------------------------------",
"----------------------------------------------X<<<<<<X----------------------------------------------",
"---*%%*---%%%=--------------------------------O333333O----------------------------------------------",
"---@++@---+++%--------------------------------------------------------------------------------------",
"---@++@---+++%--------------------------------------------------------------------------------------",
"---@++@---+++%--------------------------------------------------------------------------------------",
"------%+++----------------------------------------------------------------------+++%--%+++----------",
"------%+++----------------------------------------------------------------------+++%--%+++----------",
"------%+++----------------------------------------------------------------------+++%--%+++----------",
"------=%%%----------------------------------------------------------------------%%%#@@#%%%----------",
"-----------------------------------------------------------------------------------@++@-------------",
"-----------------------------------------------------------------------------------@++@-------------",
"-----------------------------------------------------------------------------------$@@$-------------",
"----------------------------------------------------------------------------------------------------",
"----------------------------------------------------------------------------------------------------",
"----------------------------------------------------------------------------------------------------",
"-----------------------@++@---+++%------------------------------------------------------------------",
"-----------------------@++@---+++%------------------------------------------------------------------",
"-----------------------@++@---+++%------------------------------------------------------------------",
"-----------------------*%%$@@@%%%=------------------------------------------------------------------",
"--------------------------%+++----------------------------------------------------------------------",
"--------------------------%+++----------------------------------------------------------------------",
"--------------------------*@@@----------------------------------------------------------------------",
"----------------------------------------------------------------------------------------------------",
"----------------------------------------------------------------------------------------------------",
"----------------------------------------------------------------------------------------------------"
};
