/* XPM */
static char *lapinou[] = {
/* columns rows colors chars-per-pixel */
"100 100 52 1 ",
"  c #94987F",
". c #9FA77B",
"X c #A4B275",
"o c #AAB678",
"O c #A4C263",
"+ c #ADC867",
"@ c #B0CA69",
"# c #B4CC6A",
"$ c #B7CE6C",
"% c #BAD06D",
"& c #BDD26F",
"* c #B5C574",
"= c #C0D470",
"- c #EAE178",
"; c #5C4E92",
": c #747582",
"> c #7D7B87",
", c #766DAA",
"< c #877BAB",
"1 c #999C88",
"2 c #8F8A9B",
"3 c #949095",
"4 c #9D9499",
"5 c #8E85A1",
"6 c #A798A3",
"7 c #AA9AA5",
"8 c #B993A3",
"9 c #A099B0",
"0 c #A099B1",
"q c #BCA0A8",
"w c #B7AEBE",
"e c #C1AAB4",
"r c #C1B0B3",
"t c #C1BBB1",
"y c #E8B5AC",
"u c #EDE790",
"i c #D4CFA3",
"p c #D5D1AB",
"a c #C9C6B9",
"s c #ECC9B3",
"d c #F0ECA8",
"f c #E2E0BB",
"g c #F1EEB0",
"h c #B2A8C5",
"j c #C8C1C3",
"k c #DDD5DE",
"l c #F3D8C5",
"z c #E4DFD4",
"x c #EEECC7",
"c c #ECE8CA",
"v c #F3E1C3",
"b c #F3F2C0",
/* pixels */
"====================================================================================================",
"====================================================================================================",
"====================================================================================================",
"============================================================+++%==%+++==============================",
"============================================================OOO$==#OOO==============================",
"============================================================OOO$==%OOO==============================",
"==============================$$$&==&$$$====================+++##%#+++==============================",
"==============================OOO$==$OOO=======================+OO+=================================",
"==============================OOO$==$OOO=======================+OO+=================================",
"==============================OOO$==$OOO=======================+OO+=================================",
"=================================+OO+===============================================================",
"=================================+OO+===============================================================",
"=================================+OO+===============================================================",
"=================================%$$%===============================================================",
"====================================================================================================",
"====================================================================================================",
"====================================================================================================",
"====================================================================================================",
"====================================================================================================",
"====================================================================================================",
"====================================================================================================",
"====================================================================================================",
"================================================================&&==================================",
"================================= >>>>>>>>>o============o>>>>>>>>>1=================================",
"=================================>;;;;;;;;;.============.;;;;;;;;;>=================================",
"=================================>;;;;;;;;;.============.;;;;;;;;;>============================&====",
"==============================...35555555551..o======o..15555555553...================&$$$===%$$%===",
"==============================;;;tbbbbbbbbb5;;>======>;;5bbbbbbbbbt;;;================$OOO===@OO+===",
"==============================;;;tbbbbbbbbb5;;>======>;;5bbbbbbbbbt;;;================$OOO==&+OO+===",
"==============================;;;tbbbbbbbbb5;;>======>;;5bbbbbbbbbt;;;================$OOO===@OO+===",
"==========OOO$==$OOO==========;;;8yyyyyybbb5;;;;;;;;;;;;5bbbyyyyyy8;;;====================OOO$======",
"==========OOO$==$OOO==========;;;8yyyyyybbb5;;;;;;;;;;;;5bbbyyyyyy8;;;====================OOO$======",
"==========OOO$==$OOO==========;;;8yyyyyybbb5;;;;;;;;;;;;5bbbyyyyyy8;;;====================OOO$======",
"==========$$$@++@$$$==========;;;8yyyyyybbbjhhhhhhhhhhhhjbbbyyyyyy8;;;====================$$$&======",
"=============+OO+=============;;;8yyyyyybbbzkkkkkkkkkkkkzbbbyyyyyy8;;;==============================",
"=============+OO+=============;;;8yyyyyybbbzkkkkkkkkkkkkzbbbyyyyyy8;;;==============================",
"=============#++#=============;;;qssssssbbbzkkkkkkkkkkkkzbbbssssssq;;;==============================",
"==============================;;;tbbbbbbbbbzkkkkkkkkkkkkzbbbbbbbbbt;;;==============================",
"==============================;;;tbbbbbbbbbzkkkkkkkkkkkkzbbbbbbbbbt;;;==============================",
"==============================;;;tbbbbbbbbbzkkkkkkkkkkkkzbbbbbbbbbt;;;==============================",
"==============================;;;tbbbbbbbbbzkkkkkkkkkkkkzbbbbbbbbbt;;;==&+OO@=======================",
"==============================;;;tbbbbbbbbbzkkkkkkkkkkkkzbbbbbbbbbt;;;===@OO@=======================",
"==============================;;;tbbbbbbbbbzkkkkkkkkkkkkzbbbbbbbbbt;;;===@OO@&======================",
"==========================o>>>;;;tbbbbbbbbbxccccccccccccxbbbbbbbbbt;;;>>>X$$%=======================",
"==========================.;;;;;;tbbbbbbbbbbbbbbbbbbbbbbbbbbbbbbbbt;;;;;;.&=========================",
"==========================.;;;;;;tbbbbbbbbbbbbbbbbbbbbbbbbbbbbbbbbt;;;;;;.==========================",
"==========================o>>>;;;tbbftttbbbbbbbbbbbbbbbbbbbbtttfbbt;;;>>>o==========================",
"==============================;;;tbbt;;;bbbbbbbbbbbbbbbbbbbb;;;tbbt;;;==============================",
"==============================;;;tbbt;;;bbbbbbbbbbbbbbbbbbbb;;;tbbt;;;==============================",
"==============================;;;tbbt;;;bbbbbbbbbbbbbbbbbbbb;;;tbbt;;;==============================",
"==========================.;;;;;;tbbbbbbbbbbbbbbbbbbbbbbbbbbbbbbbbt;;;;;;X==========================",
"==========================.;;;;;;tbbbbbbbbbbbbbbbbbbbbbbbbbbbbbbbbt;;;;;;1==========================",
"==========================.;;;;;;tbbbbbbbbbbbbbbbbbbbbbbbbbbbbbbgbt;;;;;;.==========================",
"==========================*...;;;rvvvvvvbbbbbbbbbbbbbbbbbbbbvvvvvvr;;;...*==========================",
"==============================;;;ellllllbbbbbbbbbbbbbbbbbbbblllllle;;;==============================",
"==============================;;;ellllllbbbbbbbbbbbbbbbbbbbblllllle;;;==============================",
"==============================>>>7eeeeeeaaaaaaaaaaaaaaaaaaaaeeeeee6:::==============================",
"=================================>;;;;;;,,,,,,,,,,,,,,,,,,,,;;;;;;:OOO==============================",
"=================================>;;;;;;,,,,,,,,,,,,,,,,,,,,;;;;;;:OOO==============================",
"=================================>;;;;;;,,,,,,,,,,,,,,,,,,,,;;;;;;:OOO==============================",
"==============================;;;hkkzbbb,,,,,,4---bbb0,,,,,,bbbzkkh;;;==============================",
"==============================;;;hkkzbbb,,,,,,4---bbb0,,,,,,bbbzkkh;;;==============================",
"==============================;;;hkkzbbb,,,,,,4---bbb0,,,,,,bbbzkkh;;;==============================",
"==============================;;;hkkzbbbaaaaaai---uuupaaaaaabbbzkkh;;;==============================",
"==============================;;;hkkzgbbbbbbbbd------dbbbbbbbbbzkkh;;;%&============================",
"==============================;;;hkkzbbbbbbbbbd------dbbbbbbbbbzkkw;;;==============================",
"==============================>>>0hhhattbbbbbbguuuuuugbbbbbbttthhh0>>>==============================",
"=================================>;;;;;;bbbbbbbbbbbbbbbbbbbb;;;;;;2%================================",
"=================================>;;;;;;bbbbbbbbbbbbbbbbbbbb;;;;;;>=================================",
"=================================>;;;;;;bbbbbbbbbbbbbbbbbgbb;;;;;;>=================================",
"====================================.;;;kkkkkkh;;;;;;hkkkkkk;;;.====================================",
"====================================.;;;kkkkkkh;;;;;;hkkkkkk;;;.====================================",
"====================================.;;;kkkkkkh;;;;;;hkkkkkk;;;.====================================",
"====================================*...<<<<<<2......2<<<<<<...*====================================",
"========================================;;;;;;>===&==>;;;;;;========================================",
"========================================;;;;;;>======>;;;;;;========================================",
"===%$$%===$$$&==========================>>>>>> ======1>>>>>>========================================",
"===+OO+===OOO$=======================================&==============================================",
"===+OO+===OOO$======================================================================================",
"===+OO+===OOO$======================================================================================",
"======$OOO======================================================================OOO#==$OOO==========",
"======$OOO======================================================================OOO$==$OOO==========",
"======$OOO======================================================================OOO$==$OOO==========",
"======&$$$======================================================================$$$@++@$$$==========",
"===================================================================================+OO+=============",
"===================================================================================+OO+=============",
"===================================================================================#++#=============",
"====================================================================================================",
"====================================================================================================",
"====================================================================================================",
"=======================+OO+===OOO$==================================================================",
"=======================+OO+===OOO$==================================================================",
"=======================+OO+===OOO$==================================================================",
"=======================%$$#+++$$$&==================================================================",
"==========================$OOO======================================================================",
"==========================$OOO======================================================================",
"==========================%+++======================================================================",
"====================================================================================================",
"====================================================================================================",
"===================================================================================================="
};
