/* XPM */
static char *lapinou_back[] = {
/* columns rows colors chars-per-pixel */
"100 100 39 1 ",
"  c #94987F",
". c #9FA77B",
"X c #A4B275",
"o c #AAB678",
"O c #A4C263",
"+ c #ADC867",
"@ c #B0CA69",
"# c #B4CC6A",
"$ c #B7CE6C",
"% c #BAD06D",
"& c #BDD26F",
"* c #B5C574",
"= c #C0D470",
"- c #5C4E92",
"; c #65589A",
": c #747582",
"> c #7D7B87",
", c #6D63A2",
"< c #766DAA",
"1 c #8379A2",
"2 c #867DA4",
"3 c #877BAB",
"4 c #999C88",
"5 c #8F8A9B",
"6 c #949095",
"7 c #8E85A1",
"8 c #A099B0",
"9 c #A7A4A1",
"0 c #AAA6A3",
"q c #B0A9AC",
"w c #B7AEBE",
"e c #C1BBB1",
"r c #C9C6B9",
"t c #B2A8C5",
"y c #C8C1C3",
"u c #DDD5DE",
"i c #E4DFD4",
"p c #E9E5CD",
"a c #F3F2C0",
/* pixels */
"====================================================================================================",
"====================================================================================================",
"====================================================================================================",
"============================================================+++%==%+++==============================",
"============================================================OOO$==$OOO==============================",
"============================================================OOO$==$OOO==============================",
"==============================$$$&==&$$$====================+++#$$#+++==============================",
"==============================OOO$==$OOO=======================+OO+=================================",
"==============================OOO$==$OOO=======================+OO+=================================",
"==============================OOO$==$OOO=======================+OO+=================================",
"=================================+OO+===============================================================",
"=================================+OO+===============================================================",
"=================================+OO+===============================================================",
"=================================%$$%===============================================================",
"====================================================================================================",
"====================================================================================================",
"====================================================================================================",
"====================================================================================================",
"====================================================================================================",
"====================================================================================================",
"====================================================================================================",
"====================================================================================================",
"====================================================================================================",
"================================= >>>>>>>>>o============o>>>>>>>>> =================================",
"=================================>---------.============.--------->=================================",
"=================================>---------.============.--------->=================================",
"==============================...67777777774..o======o..47777777776...================&$$$===%$$%===",
"==============================---eaaaaaaaaa7-->======>--7aaaaaaaaae---================$OOO===+OO+===",
"==============================---eaaaaaaaaa7-->======>--7aaaaaaaaae---================$OOO===+OO+===",
"==============================---eaaaaaaaaa7-->======>--7aaaaaaaaae---================$OOO===+OO+===",
"==========OOO$==$OOO==========---eaaaaaaaaa7------------7aaaaaaaaae---====================OOO$======",
"==========OOO$==$OOO==========---eaaaaaaaaa7------------7aaaaaaaaae---====================OOO$======",
"==========OOO$==$OOO==========---eaaaaaaaaa7------------7aaaaaaaaae---====================OOO$======",
"==========$$$@++@$$$==========---eaaaaaaaaayttttttttttttyaaaaaaaaae---====================$$$&======",
"=============+OO+=============---eaaaaaaaaaiuuuuuuuuuuuuiaaaaaaaaae---==============================",
"=============+OO+=============---eaaaaaaaaaiuuuuuuuuuuuuiaaaaaaaaae---==============================",
"=============#++#=============---eaaaaaaaaapiiiiiiiiiiiipaaaaaaaaae---==============================",
"==============================---eaaaaaaaaaaaaaaaaaaaaaaaaaaaaaaaae---==============================",
"==============================---eaaaaaaaaaaaaaaaaaaaaaaaaaaaaaaaae---==============================",
"==============================---eaaaaaaaaaaaaaaaaaaaaaaaaaaaaaaaae---==============================",
"==============================---eaaaaaaaaaaaaaaaaaaaaaaaaaaaaaaaae---===+OO+=======================",
"==============================---eaaaaaaaaaaaaaaaaaaaaaaaaaaaaaaaae---===+OO+=======================",
"==============================---eaaaaaaaaaaaaaaaaaaaaaaaaaaaaaaaae---===+OO+=======================",
"==========================o>>>---eaaaaaaaaaaaaaaaaaaaaaaaaaaaaaaaae--->>>X$$%=======================",
"==========================.------eaaaaaaaaaaaaaaaaaaaaaaaaaaaaaaaae------.==========================",
"==========================.------eaaaaaaaaaaaaaaaaaaaaaaaaaaaaaaaae------.==========================",
"==========================o>>>---eaaaaaaaaaaaaaaaaaaaaaaaaaaaaaaaae--->>>o==========================",
"==============================---eaaaaaaaaaaaaaaaaaaaaaaaaaaaaaaaae---==============================",
"==============================---eaaaaaaaaaaaaaaaaaaaaaaaaaaaaaaaae---==============================",
"==============================---eaaaaaaaaaaaaaaaaaaaaaaaaaaaaaaaae---==============================",
"==========================.------eaaaaaaaaaaaaaaaaaaaaaaaaaaaaaaaae------.==========================",
"==========================.------eaaaaaaaaaaaaaaaaaaaaaaaaaaaaaaaae------.==========================",
"==========================.------eaaaaaaaaaaaaaaaaaaaaaaaaaaaaaaaae------.==========================",
"==========================*...---eaaaaaaaaaaaaaaaaaaaaaaaaaaaaaaaae---...*==========================",
"==============================---eaaaaaaaaaaaaaaaaaaaaaaaaaaaaaaaae---==============================",
"==============================---eaaaaaaaaaaaaaaaaaaaaaaaaaaaaaaaae---==============================",
"==============================>>>0eeeeeerrrrrrrrrrrrrrrrrrrreeeeee9:::==============================",
"=================================>------<<<<<<<<<<<<<<<<<<<<------:OOO==============================",
"=================================>------<<<<<<<<<<<<<<<<<<<<------:OOO==============================",
"=================================>------<<<<<<<<<<<<<<<<<<<<------:OOO==============================",
"==============================---tuuiaaa<<<<<<,------,<<<<<<aaaiuut---==============================",
"==============================---tuuiaaa<<<<<<,------,<<<<<<aaaiuut---==============================",
"==============================---tuuiaaa<<<<<<,------,<<<<<<aaaiuut---==============================",
"==============================---tuuiaaarrr2;;1eeeeee1;;2rrraaaiuut---==============================",
"==============================---tuuiaaaaaa7--7aaaaaa7--7aaaaaaiuut---==============================",
"==============================---tuuiaaaaaa7--7aaaaaa7--7aaaaaaiuut---==============================",
"==============================>>>8ttweeeaaaq77qaaaaaaq77qaaaeeewtt8>>>==============================",
"=================================>------aaaaaaaaaaaaaaaaaaaa------>=================================",
"=================================>------aaaaaaaaaaaaaaaaaaaa------>=================================",
"=================================>------aaaaaaaaaaaaaaaaaaaa------>=================================",
"====================================.---uuuuuut------tuuuuuu---.====================================",
"====================================.---uuuuuut------tuuuuuu---.====================================",
"====================================.---uuuuuut------tuuuuuu---.====================================",
"====================================*...3333335......5333333...*====================================",
"========================================------>======>------========================================",
"========================================------>======>------========================================",
"===%$$%===$$$&==========================>>>>>> ====== >>>>>>========================================",
"===+OO+===OOO$======================================================================================",
"===+OO+===OOO$======================================================================================",
"===+OO+===OOO$======================================================================================",
"======$OOO======================================================================OOO$==$OOO==========",
"======$OOO======================================================================OOO$==$OOO==========",
"======$OOO======================================================================OOO$==$OOO==========",
"======&$$$======================================================================$$$@++@$$$==========",
"===================================================================================+OO+=============",
"===================================================================================+OO+=============",
"===================================================================================#++#=============",
"====================================================================================================",
"====================================================================================================",
"====================================================================================================",
"=======================+OO+===OOO$==================================================================",
"=======================+OO+===OOO$==================================================================",
"=======================+OO+===OOO$==================================================================",
"=======================%$$#+++$$$&==================================================================",
"==========================$OOO======================================================================",
"==========================$OOO======================================================================",
"==========================%+++======================================================================",
"====================================================================================================",
"====================================================================================================",
"===================================================================================================="
};
