/* XPM */
static char *lapinou_back[] = {
/* columns rows colors chars-per-pixel */
"50 50 52 1 ",
"  c #8C9B73",
". c #94987F",
"X c #9FA77B",
"o c #A4B275",
"O c #AAB678",
"+ c #A4C263",
"@ c #ADC867",
"# c #B0CA69",
"$ c #B4CC6A",
"% c #B7CE6C",
"& c #BAD06D",
"* c #BDD26F",
"= c #B5C574",
"- c #C0D470",
"; c #EAE178",
": c #5C4E92",
"> c #7D7B87",
", c #766DAA",
"< c #8B709B",
"1 c #8D7E9F",
"2 c #8E7CA3",
"3 c #877BAB",
"4 c #8D9183",
"5 c #97998B",
"6 c #999989",
"7 c #8F8A9B",
"8 c #949095",
"9 c #8E82A2",
"0 c #8E85A1",
"q c #8C81A5",
"w c #A099B1",
"e c #AAA6A3",
"r c #B0A9AC",
"t c #C3BA89",
"y c #C1BBB1",
"u c #E8B5AC",
"i c #D1C98B",
"p c #EDE790",
"a c #D5D1AB",
"s c #C9C6B9",
"d c #CFCAB9",
"f c #EFDEB9",
"g c #F0ECA8",
"h c #F1EEB0",
"j c #B2A8C5",
"k c #DDD5DE",
"l c #F3D8C5",
"z c #E4DFD4",
"x c #EEECC7",
"c c #ECE8CA",
"v c #F3E9C2",
"b c #F3F2C0",
/* pixels */
"--------------------------------------------------",
"------------------------------%&-&%---------------",
"------------------------------+@-@+---------------",
"---------------@$-$@----------%$@$%---------------",
"---------------+@-@+-----------%+%----------------",
"----------------%+%-------------------------------",
"----------------&@&-------------------------------",
"--------------------------------------------------",
"--------------------------------------------------",
"--------------------------------------------------",
"--------------------------------------------------",
"----------------=XXXXO------OXXXX=----------------",
"----------------X::::>------>::::X----------------",
"--------------->8yyyye>O--O>eyyyy8>--------$@-&@&-",
"---------------:0bbbby:X--X:ybbbb0:--------@+-%+%-",
"-----+@-@+-----:<uuuby::::::ybuuu<:----------+@---",
"-----@#%#@-----:<uuubd333333dbuuu<:----------@$---",
"------%+%------:<uuubckkkkkkcbuuu<:---------------",
"------*%*------:1fffbckkkkkkcbfff1:---------------",
"---------------:0bbbbckkkkkkcbbbb0:---------------",
"---------------:0bbbbckkkkkkcbbbb0:-%+%-----------",
"-------------OX:0bbbbxzzzzzzxbbbb0:Xo@&-----------",
"------------->::0bbbbbbbbbbbbbbbb0::>-------------",
"-------------OX:0br0bbbbbbbbbb0rb0:XO-------------",
"---------------:0b0:bbbbbbbbbb:0b0:---------------",
"------------->::0bbbbbbbbbbbbbbbb0::>-------------",
"-------------.>:9vvvbbbbbbbbbbvvv9:>.-------------",
"---------------:2lllbbbbbbbbbblll2:---------------",
"---------------X6222wwwwwwwwww2224 ---------------",
"----------------X:::,,,,,,,,,,::: +---------------",
"---------------:3kcb,,,t;bs,,,bck3:---------------",
"---------------:3kcbwwwi;gawwwbck3:---------------",
"---------------:3kcbbbbp;;pbbbbck3:---------------",
"---------------X53q0bbbhgghbbb0q35X---------------",
"----------------X:::bbbbbbbbbb:::X----------------",
"------------------>:kkk3::3kkk:>------------------",
"------------------.>jjj7>>7jjj>.------------------",
"--------------------:::X--X:::--------------------",
"-&@&-@$-------------XXX=--=XXX--------------------",
"-%+%-+@-------------------------------------------",
"---@+-----------------------------------+@-@+-----",
"---$@-----------------------------------@#%#@-----",
"-----------------------------------------%+%------",
"-----------------------------------------*%*------",
"--------------------------------------------------",
"-----------%+%-+@---------------------------------",
"-----------&@$%@$---------------------------------",
"-------------@+-----------------------------------",
"-------------&%-----------------------------------",
"--------------------------------------------------"
};
