/* XPM */
static char *lapinou_bed_down[] = {
/* columns rows colors chars-per-pixel */
"50 50 79 1 ",
"  c #7F5B6F",
". c #765C7F",
"X c #90625D",
"o c #996A5C",
"O c #A1715A",
"+ c #A1745F",
"@ c #AA7959",
"# c #996F66",
"$ c #906B6C",
"% c #876672",
"& c #897F7B",
"* c #A17562",
"= c #BD757E",
"- c #97825F",
"; c #8E806C",
": c #94846F",
"> c #A08060",
", c #A08863",
"< c #A68865",
"1 c #AD8368",
"2 c #B38767",
"3 c #B68861",
"4 c #BB8F66",
"5 c #AA8572",
"6 c #A18179",
"7 c #9DA261",
"8 c #AAAA67",
"9 c #ABA168",
"0 c #B0AE6A",
"q c #C49A6C",
"w c #A4C263",
"e c #ADC867",
"r c #B4C36B",
"t c #BBC76E",
"y c #B0CA69",
"u c #B4CC6A",
"i c #B7CE6C",
"p c #BAD06D",
"a c #BDD26F",
"s c #C0D470",
"d c #EAE178",
"f c #5C4E92",
"g c #6D5580",
"h c #7D7B87",
"j c #766DAA",
"k c #9D6885",
"l c #986F8F",
"z c #956E92",
"x c #8A7696",
"c c #8F7C90",
"v c #8B709B",
"b c #8D7E9F",
"n c #8E7CA3",
"m c #877BAB",
"M c #8E82A2",
"N c #8E85A1",
"B c #8C81A5",
"V c #A89CA0",
"C c #A099B1",
"Z c #B0A9AC",
"A c #C3BA89",
"S c #C1BBB1",
"D c #E8B5AC",
"F c #D1C98B",
"G c #EDE790",
"H c #D5D1AB",
"J c #C9C6B9",
"K c #CFCAB9",
"L c #EFDEB9",
"P c #F0ECA8",
"I c #F1EEB0",
"U c #B2A8C5",
"Y c #DDD5DE",
"T c #F3D8C5",
"R c #E4DFD4",
"E c #EEECC7",
"W c #ECE8CA",
"Q c #F3E9C2",
"! c #F3F2C0",
/* pixels */
"ssssssssssssssssssssssssssssssssssssssssssssssssss",
"ssssssssssssssssssssssssssssssipspisssssssssssssss",
"sssssssssssssssssssssssssssssswesewsssssssssssssss",
"ssssssssssssssseusuessssssssssiueuisssssssssssssss",
"ssssssssssssssswesewsssssssssssiwissssssssssssssss",
"ssssssssssssssssiwisssssssssssssssssssssssssssssss",
"ssssssssssssssssr780ssssssssss000tssssssssssssssss",
"ssssssssssssssss0XXXssssssssssXXX0ssssssssssssssss",
"sssssssssssssss,<222,,,,,,,,,,222<,sssssssssssssss",
"sssssssssssssssX*qqqXXXXXXXXXXqqq*Xsssssssssssssss",
"sssssssssssss,Xq4@@@qqqqqqqqqq@@@4qX,sssssssssssss",
"sssssssssssss,X41$$$6544444456$$$14X,sssssssssssss",
"sssssssssssss,X@$ffff.@@@@@@.ffff$@X,sssssssssssss",
"sssssssssssss,X.cSSSSV.#@@#.VSSSSc.X,ssssssuespeps",
"sssssssssssss,XfN!!!!Sf$@@$fS!!!!NfX,ssssssewsiwis",
"ssssswesewsss,XfvDDD!SffffffS!DDDvfX,sssssssswesss",
"ssssseyiyesss,XfvDDD!KmmmmmmK!DDDvfX,sssssssseusss",
"ssssssiwissss,XfvDDD!WYYYYYYW!DDDvfX,sssssssssssss",
"ssssssaiassss,XfbLLL!WYYYYYYW!LLLbfX,sssssssssssss",
"sssssssssssss,XfN!!!!WYYYYYYW!!!!NfX,sssssssssssss",
"sssssssssssss,XfN!!!!WYYYYYYW!!!!NfX-wisssssssssss",
"sssssssssssss: fN!!!!ERRRRRRE!!!!Nf ;epsssssssssss",
"ssssssssssssshffN!!!!!!!!!!!!!!!!Nffhsssssssssssss",
"sssssssssssss: fN!ZN!!!!!!!!!!NZ!Nf :sssssssssssss",
"sssssssssssss,XfN!Nf!!!!!!!!!!fN!NfX,sssssssssssss",
"ssssssssssssshffN!!!!!!!!!!!!!!!!Nffhsssssssssssss",
"sssssssssssss&gfMQQQ!!!!!!!!!!QQQMfg&sssssssssssss",
"sssssssssssss,XfnTTT!!!!!!!!!!TTTnfX,sssssssssssss",
"sssssssssssss,XklnnnCCCCCCCCCCnnnlkX,sssssssssssss",
"sssssssssssss,X=kfffjjjjjjjjjjfffk=X,sssssssssssss",
"sssssssssssss,XfmYW!jjjAd!Jjjj!WYmfX,sssssssssssss",
"sssssssssssss,XfmYW!CCCFdPHCCC!WYmfX,sssssssssssss",
"sssssssssssss,XfmYW!!!!GddG!!!!WYmfX,sssssssssssss",
"sssssssssssss,XkzmBN!!!IPPI!!!NBmzkX,sssssssssssss",
"sssssssssssss,X=kfff!!!!!!!!!!fffk=X,sssssssssssss",
"sssssssssssss,Xq4@.fYYYmffmYYYf.@4qX,sssssssssssss",
"sssssssssssss,X43@%.UUUx..xUUU.%@34X,sssssssssssss",
"sssssssssssss,X@@@@@fff$@@$fff@@@@@X,sssssssssssss",
"spepseussssss,X@@@@@$$$+@@+$$$@@@@@X,sssssssssssss",
"siwiswessssss,X@@@@@@@@@@@@@@@@@@@@X,sssssssssssss",
"sssewssssssss,X@@@oXXXXXXXXXXXXo@@@X,ssswesewsssss",
"sssuessssssss9,OOO>,,,,,,,,,,,,>OOO,9ssseyiyesssss",
"sssssssssssssssXXX0ssssssssssss0XXXssssssiwissssss",
"sssssssssssssss000tsssssssssssst000ssssssaiassssss",
"ssssssssssssssssssssssssssssssssssssssssssssssssss",
"sssssssssssiwiswesssssssssssssssssssssssssssssssss",
"ssssssssssspeuieusssssssssssssssssssssssssssssssss",
"sssssssssssssewsssssssssssssssssssssssssssssssssss",
"ssssssssssssspisssssssssssssssssssssssssssssssssss",
"ssssssssssssssssssssssssssssssssssssssssssssssssss"
};
