/* XPM */
static char *lapinou_bed_up[] = {
/* columns rows colors chars-per-pixel */
"50 50 66 1 ",
"  c #7F5B6F",
". c #765C7F",
"X c #90625D",
"o c #996A5C",
"O c #A1715A",
"+ c #A1745F",
"@ c #AA7959",
"# c #996F66",
"$ c #906B6C",
"% c #876672",
"& c #897F7B",
"* c #A17562",
"= c #BD757E",
"- c #97825F",
"; c #8E806C",
": c #94846F",
"> c #A08060",
", c #A08863",
"< c #A68865",
"1 c #AD8368",
"2 c #B38767",
"3 c #B68861",
"4 c #BB8F66",
"5 c #AA8572",
"6 c #A18179",
"7 c #9DA261",
"8 c #AAAA67",
"9 c #ABA168",
"0 c #B0AE6A",
"q c #C49A6C",
"w c #A4C263",
"e c #ADC867",
"r c #B4C36B",
"t c #BBC76E",
"y c #B0CA69",
"u c #B4CC6A",
"i c #B7CE6C",
"p c #BAD06D",
"a c #BDD26F",
"s c #C0D470",
"d c #5C4E92",
"f c #6D5580",
"g c #65589A",
"h c #7D7B87",
"j c #6D63A2",
"k c #766DAA",
"l c #9D6885",
"z c #98728E",
"x c #956E92",
"c c #8A7696",
"v c #8F7C90",
"b c #8379A2",
"n c #877BAB",
"m c #8E85A1",
"M c #8C81A5",
"N c #8F87AC",
"B c #A89CA0",
"V c #A099B1",
"C c #C1BBB1",
"Z c #CFCAB9",
"A c #E2E0BB",
"S c #B2A8C5",
"D c #DDD5DE",
"F c #ECE8CA",
"G c #F1EFC3",
"H c #F3F2C0",
/* pixels */
"ssssssssssssssssssssssssssssssssssssssssssssssssss",
"ssssssssssssssssssssssssssssssipspisssssssssssssss",
"sssssssssssssssssssssssssssssswesewsssssssssssssss",
"ssssssssssssssseusuessssssssssiueuisssssssssssssss",
"ssssssssssssssswesewsssssssssssiwissssssssssssssss",
"ssssssssssssssssiwisssssssssssssssssssssssssssssss",
"ssssssssssssssssr780ssssssssss000tssssssssssssssss",
"ssssssssssssssss0XXXssssssssssXXX0ssssssssssssssss",
"sssssssssssssss,<222,,,,,,,,,,222<,sssssssssssssss",
"sssssssssssssssX*qqqXXXXXXXXXXqqq*Xsssssssssssssss",
"sssssssssssss,Xq4@@@qqqqqqqqqq@@@4qX,sssssssssssss",
"sssssssssssss,X41$$$6544444456$$$14X,sssssssssssss",
"sssssssssssss,X@$dddd.@@@@@@.dddd$@X,sssssssssssss",
"sssssssssssss,X.vCCCCB.#@@#.BCCCCv.X,ssssssuespeps",
"sssssssssssss,XdmHHHHCd$@@$dCHHHHmdX,ssssssewsiwis",
"ssssswesewsss,XdmHHHHCddddddCHHHHmdX,sssssssswesss",
"ssssseyiyesss,XdmHHHHZnnnnnnZHHHHmdX,sssssssseusss",
"ssssssiwissss,XdmHHHHFDDDDDDFHHHHmdX,sssssssssssss",
"ssssssaiassss,XdmHHHHGFFFFFFGHHHHmdX,sssssssssssss",
"sssssssssssss,XdmHHHHHHHHHHHHHHHHmdX,sssssssssssss",
"sssssssssssss,XdmHHHHHHHHHHHHHHHHmdX-wisssssssssss",
"sssssssssssss: dmHHHHHHHHHHHHHHHHmd ;epsssssssssss",
"ssssssssssssshddmHHHHHHHHHHHHHHHHmddhsssssssssssss",
"sssssssssssss: dmHHHHHHHHHHHHHHHHmd :sssssssssssss",
"sssssssssssss,XdmHHHHHHHHHHHHHHHHmdX,sssssssssssss",
"ssssssssssssshddmHHHHHHHHHHHHHHHHmddhsssssssssssss",
"sssssssssssss&fdmHHHHHHHHHHHHHHHHmdf&sssssssssssss",
"sssssssssssss,XdmHHHHHHHHHHHHHHHHmdX,sssssssssssss",
"sssssssssssss,XlzmmmVVVVVVVVVVmmmzlX,sssssssssssss",
"sssssssssssss,X=ldddkkkkkkkkkkdddl=X,sssssssssssss",
"sssssssssssss,XdnDFHkkkgddgkkkHFDndX,sssssssssssss",
"sssssssssssss,XdnDFHVNjbmmbjNVHFDndX,sssssssssssss",
"sssssssssssss,XdnDFHHCdCHHCdCHHFDndX,sssssssssssss",
"sssssssssssss,XlxnMmHACAHHACAHmMnxlX,sssssssssssss",
"sssssssssssss,X=ldddHHHHHHHHHHdddl=X,sssssssssssss",
"sssssssssssss,Xq4@.dDDDnddnDDDd.@4qX,sssssssssssss",
"sssssssssssss,X43@%.SSSc..cSSS.%@34X,sssssssssssss",
"sssssssssssss,X@@@@@ddd$@@$ddd@@@@@X,sssssssssssss",
"spepseussssss,X@@@@@$$$+@@+$$$@@@@@X,sssssssssssss",
"siwiswessssss,X@@@@@@@@@@@@@@@@@@@@X,sssssssssssss",
"sssewssssssss,X@@@oXXXXXXXXXXXXo@@@X,ssswesewsssss",
"sssuessssssss9,OOO>,,,,,,,,,,,,>OOO,9ssseyiyesssss",
"sssssssssssssssXXX0ssssssssssss0XXXssssssiwissssss",
"sssssssssssssss000tsssssssssssst000ssssssaiassssss",
"ssssssssssssssssssssssssssssssssssssssssssssssssss",
"sssssssssssiwiswesssssssssssssssssssssssssssssssss",
"ssssssssssspeuieusssssssssssssssssssssssssssssssss",
"sssssssssssssewsssssssssssssssssssssssssssssssssss",
"ssssssssssssspisssssssssssssssssssssssssssssssssss",
"ssssssssssssssssssssssssssssssssssssssssssssssssss"
};
