/* XPM */
static char *lapinou_right[] = {
/* columns rows colors chars-per-pixel */
"50 50 51 1 ",
"  c #9FA77B",
". c #A4B275",
"X c #AAB678",
"o c #A4C263",
"O c #ADC867",
"+ c #B0CA69",
"@ c #B4CC6A",
"# c #B7CE6C",
"$ c #BAD06D",
"% c #BDD26F",
"& c #B5C574",
"* c #C0D470",
"= c #C9D772",
"- c #CED873",
"; c #D3D771",
": c #D6D972",
"> c #DCDD75",
", c #EAE178",
"< c #5C4E92",
"1 c #675D8E",
"2 c #65589A",
"3 c #726C8A",
"4 c #7D7B87",
"5 c #6D63A2",
"6 c #766DAA",
"7 c #7E75A7",
"8 c #877BAB",
"9 c #949095",
"0 c #8E85A1",
"q c #948CA7",
"w c #9F97A6",
"e c #A091B3",
"r c #A094B2",
"t c #A099B0",
"y c #A099B1",
"u c #AAA6A3",
"i c #ABA3B2",
"p c #BBB7B6",
"a c #C1BBB1",
"s c #E8B5AC",
"d c #D1CEB6",
"f c #EFDEB9",
"g c #F2EBBE",
"h c #B2A8C5",
"j c #DDD5DE",
"k c #F3D8C5",
"l c #E4DFD4",
"z c #F3E1C3",
"x c #F3E9C2",
"c c #F3ECC1",
"v c #F3F2C0",
/* pixels */
"**************************************************",
"******************************#$*%@***************",
"******************************oO*Oo***************",
"***************O@*@O**********#@O@$***************",
"***************oO*Oo***********#o@****************",
"****************#o#*******************************",
"****************$O$*******************************",
"**************************************************",
"**************************************************",
"**************************************************",
"**************************************************",
"*********************&    X***********************",
"********************* <<<<4***********************",
"********************49aaaau4X**************@O*%O%*",
"********************<0vvvva< **************Oo*@o@*",
"*****oO*Oo********4<vfsssva<<<***************oO***",
"*****O+#+O********4<vfsssvd000 X*************O@***",
"******#o#*********4<vfsssvvvvv<4******************",
"******%#%*********4<vgfffvvvvv<4******************",
"******************4<vvvvvvvvvv<4******************",
"******************4<vvvvvvvvvv<4*Oo*@o$***********",
"****************& 3<vvvvvvvvvv<3 oO$@O$***********",
"**************** <<<vvvvvvvvvv<<< *oO*************",
"****************& 3<vvvvvvd0dvaw< *@%*************",
"******************4<vvvvvva<avva< ****************",
"**************** <<<vvvvvvvvvvva< ****************",
"***************#.41<vvvcxxcvvvva< ****************",
"***************oO*4<vvvzkkzvvvva19****************",
"***************#@O. 0qyreeryyy09 OO***************",
"****************#o#*<266666666<4%Oo%**************",
"******************4<jlvy666666,;o@****************",
"******************4<jlvpyyyy75,:+%****************",
"******************4<jlvvvvvv0<,>******************",
"******************X 8ivvvvvv0<-=******************",
"********************<0gvvvvv0<********************",
"********************* <hjjh< *********************",
"*********************X4yhhy4X*********************",
"***********************4<<4***********************",
"*$O$*O@****************X  X***********************",
"*#o#*oO*******************************************",
"***Oo***********************************o+%+o*****",
"***@O***********************************O+@+O%****",
"****************************************%$o$******",
"*****************************************%@%******",
"**************************************************",
"***********#o#*oO*********************************",
"***********$O@#O@*********************************",
"*************Oo***********************************",
"*************$#***********************************",
"**************************************************"
};
