/* XPM */
static char *lapinou_left[] = {
/* columns rows colors chars-per-pixel */
"100 100 56 1 ",
"  c #8C9B73",
". c #879079",
"X c #90967E",
"o c #94987F",
"O c #98A378",
"+ c #9FA77B",
"@ c #A7B476",
"# c #AAB678",
"$ c #A4C263",
"% c #ADC867",
"& c #B0CA69",
"* c #B4CC6A",
"= c #B7CE6C",
"- c #BAD06D",
"; c #BDD26F",
": c #C0D470",
"> c #C9D772",
", c #CED873",
"< c #DCDD75",
"1 c #EAE178",
"2 c #5C4E92",
"3 c #65589A",
"4 c #726C8A",
"5 c #747582",
"6 c #777784",
"7 c #7D7B87",
"8 c #6D6097",
"9 c #6D63A2",
"0 c #766DAA",
"q c #877BAB",
"w c #888A83",
"e c #97998B",
"r c #999C88",
"t c #8E8C92",
"y c #949095",
"u c #8E85A1",
"i c #A8A1AE",
"p c #C1BBB1",
"a c #C9B4BC",
"s c #E8B5AC",
"d c #C6C2B6",
"f c #C9C0BA",
"g c #C9C6B9",
"h c #D1CEB6",
"j c #ECC9B3",
"k c #EED7B7",
"l c #E5E3BE",
"z c #B2A8C5",
"x c #DDD9C2",
"c c #DDD5DE",
"v c #F3D8C5",
"b c #ECE8CA",
"n c #F3E1C3",
"m c #F3E9C2",
"M c #F3ECC1",
"N c #F3F2C0",
/* pixels */
"::::::::::::::::::::::::::::::::::::::::::::::::::::::::::::::::::::::::::::::::::::::::::::::::::::",
"::::::::::::::::::::::::::::::::::::::::::::::::::::::::::::::::::::::::::::::::::::::::::::::::::::",
"::::::::::::::::::::::::::::::::::::::::::::::::::::::::::::::::::::::::::::::::::::::::::::::::::::",
"::::::::::::::::::::::::::::::::::::::::::::::::::::::::::::%%%-::-%%%::::::::::::::::::::::::::::::",
"::::::::::::::::::::::::::::::::::::::::::::::::::::::::::::$$$=::=$$$::::::::::::::::::::::::::::::",
"::::::::::::::::::::::::::::::::::::::::::::::::::::::::::::$$$=::=$$$::::::::::::::::::::::::::::::",
"::::::::::::::::::::::::::::::===;::;===::::::::::::::::::::%%%*==*%%%::::::::::::::::::::::::::::::",
"::::::::::::::::::::::::::::::$$$=::=$$$:::::::::::::::::::::::%$$%:::::::::::::::::::::::::::::::::",
"::::::::::::::::::::::::::::::$$$=::=$$$:::::::::::::::::::::::%$$%:::::::::::::::::::::::::::::::::",
"::::::::::::::::::::::::::::::$$$=::=$$$:::::::::::::::::::::::%$$%:::::::::::::::::::::::::::::::::",
":::::::::::::::::::::::::::::::::%$$%:::::::::::::::::::::::::::::::::::::::::::::::::::::::::::::::",
":::::::::::::::::::::::::::::::::%$$%:::::::::::::::::::::::::::::::::::::::::::::::::::::::::::::::",
":::::::::::::::::::::::::::::::::%$$%:::::::::::::::::::::::::::::::::::::::::::::::::::::::::::::::",
":::::::::::::::::::::::::::::::::-==-:::::::::::::::::::::::::::::::::::::::::::::::::::::::::::::::",
"::::::::::::::::::::::::::::::::::::::::::::::::::::::::::::::::::::::::::::::::::::::::::::::::::::",
"::::::::::::::::::::::::::::::::::::::::::::::::::::::::::::::::::::::::::::::::::::::::::::::::::::",
"::::::::::::::::::::::::::::::::::::::::::::::::::::::::::::::::::::::::::::::::::::::::::::::::::::",
"::::::::::::::::::::::::::::::::::::::::::::::::::::::::::::::::::::::::::::::::::::::::::::::::::::",
"::::::::::::::::::::::::::::::::::::::::::::::::::::::::::::::::::::::::::::::::::::::::::::::::::::",
"::::::::::::::::::::::::::::::::::::::::::::::::::::::::::::::::::::::::::::::::::::::::::::::::::::",
"::::::::::::::::::::::::::::::::::::::::::::::::::::::::::::::::::::::::::::::::::::::::::::::::::::",
"::::::::::::::::::::::::::::::::::::::::::::::::::::::::::::::::::::::::::::::::::::::::::::::::::::",
"::::::::::::::::::::::::::::::::::::::::::::::::::::::::::::::::::::::::::::::::::::::::::::::::::::",
"::::::::::::::::::::::::::::::::::::::::::::::#777777777o:::::::::::::::::::::::::::::::::::::::::::",
"::::::::::::::::::::::::::::::::::::::::::::::+2222222227:::::::::::::::::::::::::::::::::::::::::::",
"::::::::::::::::::::::::::::::::::::::::::::::+2222222227:::::::::::::::::::::::::::::::::::::::::::",
":::::::::::::::::::::::::::::::::::::::::::#++ruuuuuuuuuy+++::::::::::::::::::::::::::;===:::-==-:::",
":::::::::::::::::::::::::::::::::::::::::::722uNNNNNNNNNp222::::::::::::::::::::::::::=$$$:::%$$%:::",
":::::::::::::::::::::::::::::::::::::::::::722uNNNNNNNNNp222::::::::::::::::::::::::::=$$$:::%$$%:::",
":::::::::::::::::::::::::::::::::::::::::::722uNNNNNNNNNp222::::::::::::::::::::::::::=$$$:::%$$%:::",
"::::::::::$$$=::=$$$::::::::::::::::::::222222uNNNssssssjNNN222+::::::::::::::::::::::::::$$$=::::::",
"::::::::::$$$=::=$$$::::::::::::::::::::222222uNNNssssssjNNN222+::::::::::::::::::::::::::$$$=::::::",
"::::::::::$$$=::=$$$::::::::::::::::::::222222uNNNssssssjNNN222+::::::::::::::::::::::::::$$$=::::::",
"::::::::::===&%%&===::::::::::::::::#777pppppphNNNssssssjNNN222+::::::::::::::::::::::::::===;::::::",
":::::::::::::%$$%:::::::::::::::::::+222NNNNNNNNNNssssssjNNN222+::::::::::::::::::::::::::::::::::::",
":::::::::::::%$$%:::::::::::::::::::+222NNNNNNNNNNssssssjNNN222+::::::::::::::::::::::::::::::::::::",
":::::::::::::*%%*:::::::::::::::::::+222NNNNNNNNNNjjjjjjkNNN222+::::::::::::::::::::::::::::::::::::",
"::::::::::::::::::::::::::::::::::::+222NNNNNNNNNNNNNNNNNNNN222+::::::::::::::::::::::::::::::::::::",
"::::::::::::::::::::::::::::::::::::+222NNNNNNNNNNNNNNNNNNNN222+::::::::::::::::::::::::::::::::::::",
"::::::::::::::::::::::::::::::::::::+222NNNNNNNNNNNNNNNNNNNN222+::::::::::::::::::::::::::::::::::::",
"::::::::::::::::::::::::::::::::::::+222NNNNNNNNNNNNNNNNNNNN222+::=$$$:::%$$%:::::::::::::::::::::::",
"::::::::::::::::::::::::::::::::::::+222NNNNNNNNNNNNNNNNNNNN222+::=$$$:::%$$%:::::::::::::::::::::::",
"::::::::::::::::::::::::::::::::::::+222NNNNNNNNNNNNNNNNNNNN222+::=$$$:::%$$%:::::::::::::::::::::::",
":::::::::::::::::::::::::::::::::o774222NNNNNNNNNNNNNNNNNNNN222477X===%%%*==-:::::::::::::::::::::::",
":::::::::::::::::::::::::::::::::7222222NNNNNNNNNNNNNNNNNNNN2222227:::$$$=::::::::::::::::::::::::::",
":::::::::::::::::::::::::::::::::7222222NNNNNNNNNNNNNNNNNNNN2222227:::$$$=::::::::::::::::::::::::::",
":::::::::::::::::::::::::::::::::7228uuuNNNhpphNNNNNNNNNNNNN222477o:::%%%-::::::::::::::::::::::::::",
":::::::::::::::::::::::::::::::::722uNNNNNNu22uNNNNNNNNNNNNN222+::::::::::::::::::::::::::::::::::::",
":::::::::::::::::::::::::::::::::722uNNNNNNu22uNNNNNNNNNNNNN222+::::::::::::::::::::::::::::::::::::",
":::::::::::::::::::::::::::::::::722uNNNNNNu22uNNNNNNNNNNNNN222+::::::::::::::::::::::::::::::::::::",
":::::::::::::::::::::::::::::::::722uNNNNNNNNNNNNNNNNNNNNNNN2222227:::::::::::::::::::::::::::::::::",
":::::::::::::::::::::::::::::::::722uNNNNNNNNNNNNNNNNNNNNNNN2222227:::::::::::::::::::::::::::::::::",
":::::::::::::::::::::::::::::::::722uNNNNNNNNNNNNNNNNNNNNNNN2222227:::::::::::::::::::::::::::::::::",
"::::::::::::::::::::::::::::::%%%622uNNNNNNNNNMnnnnnnMNNNNNN222w++#:::::::::::::::::::::::::::::::::",
"::::::::::::::::::::::::::::::$$$522uNNNNNNNNNmvvvvvvmNNNNNN222+::::::::::::::::::::::::::::::::::::",
"::::::::::::::::::::::::::::::$$$522uNNNNNNNNNmvvvvvvmNNNNNN222+::::::::::::::::::::::::::::::::::::",
"::::::::::::::::::::::::::::::%%%.55tpppggggggfaaaaaafggdppp555@::;===::::::::::::::::::::::::::::::",
":::::::::::::::::::::::::::::::::%$$ 22200000000000000009222$$$=::=$$$::::::::::::::::::::::::::::::",
":::::::::::::::::::::::::::::::::%$$ 22200000000000000009222$$$=::=$$$::::::::::::::::::::::::::::::",
":::::::::::::::::::::::::::::::::%$$ 22200000000000000009222$$$=::=$$$::::::::::::::::::::::::::::::",
"::::::::::::::::::::::::::::::::::::,1110000000000000gNNbccc222 $$%:::::::::::::::::::::::::::::::::",
"::::::::::::::::::::::::::::::::::::,1110000000000000gNNbccc222 $$%:::::::::::::::::::::::::::::::::",
"::::::::::::::::::::::::::::::::::::,1110000000000000gNNbccc222 $$%:::::::::::::::::::::::::::::::::",
"::::::::::::::::::::::::::::::::::::,111333iggggggggglNNbccc222O==-:::::::::::::::::::::::::::::::::",
"::::::::::::::::::::::::::::::::::::,111222pNNNNNNNNNNNNbccc222+::::::::::::::::::::::::::::::::::::",
"::::::::::::::::::::::::::::::::::::,111222pNNNNNNNNNNNNbccc222+::::::::::::::::::::::::::::::::::::",
"::::::::::::::::::::::::::::::::::::><<<222pNNNNNNNNNNNNxzzz777#::::::::::::::::::::::::::::::::::::",
"::::::::::::::::::::::::::::::::::::::::222pNNNNNNNNNNNNp222::::::::::::::::::::::::::::::::::::::::",
"::::::::::::::::::::::::::::::::::::::::222pNNNNNNNNNNNNp222::::::::::::::::::::::::::::::::::::::::",
"::::::::::::::::::::::::::::::::::::::::222pNNNNNNNNNNNNp222::::::::::::::::::::::::::::::::::::::::",
":::::::::::::::::::::::::::::::::::::::::::722qccccccq227:::::::::::::::::::::::::::::::::::::::::::",
":::::::::::::::::::::::::::::::::::::::::::722qccccccq227:::::::::::::::::::::::::::::::::::::::::::",
":::::::::::::::::::::::::::::::::::::::::::722qccccccq227:::::::::::::::::::::::::::::::::::::::::::",
":::::::::::::::::::::::::::::::::::::::::::#++eqqqqqqe++#:::::::::::::::::::::::::::::::::::::::::::",
"::::::::::::::::::::::::::::::::::::::::::::::+222222+::::::::::::::::::::::::::::::::::::::::::::::",
"::::::::::::::::::::::::::::::::::::::::::::::+222222+::::::::::::::::::::::::::::::::::::::::::::::",
":::-==-:::===;::::::::::::::::::::::::::::::::#777777#::::::::::::::::::::::::::::::::::::::::::::::",
":::%$$%:::$$$=::::::::::::::::::::::::::::::::::::::::::::::::::::::::::::::::::::::::::::::::::::::",
":::%$$%:::$$$=::::::::::::::::::::::::::::::::::::::::::::::::::::::::::::::::::::::::::::::::::::::",
":::%$$%:::$$$=::::::::::::::::::::::::::::::::::::::::::::::::::::::::::::::::::::::::::::::::::::::",
"::::::=$$$::::::::::::::::::::::::::::::::::::::::::::::::::::::::::::::::::::::$$$=::=$$$::::::::::",
"::::::=$$$::::::::::::::::::::::::::::::::::::::::::::::::::::::::::::::::::::::$$$=::=$$$::::::::::",
"::::::=$$$::::::::::::::::::::::::::::::::::::::::::::::::::::::::::::::::::::::$$$=::=$$$::::::::::",
"::::::;===::::::::::::::::::::::::::::::::::::::::::::::::::::::::::::::::::::::===&%%&===::::::::::",
":::::::::::::::::::::::::::::::::::::::::::::::::::::::::::::::::::::::::::::::::::%$$%:::::::::::::",
":::::::::::::::::::::::::::::::::::::::::::::::::::::::::::::::::::::::::::::::::::%$$%:::::::::::::",
":::::::::::::::::::::::::::::::::::::::::::::::::::::::::::::::::::::::::::::::::::*%%*:::::::::::::",
"::::::::::::::::::::::::::::::::::::::::::::::::::::::::::::::::::::::::::::::::::::::::::::::::::::",
"::::::::::::::::::::::::::::::::::::::::::::::::::::::::::::::::::::::::::::::::::::::::::::::::::::",
"::::::::::::::::::::::::::::::::::::::::::::::::::::::::::::::::::::::::::::::::::::::::::::::::::::",
":::::::::::::::::::::::%$$%:::$$$=::::::::::::::::::::::::::::::::::::::::::::::::::::::::::::::::::",
":::::::::::::::::::::::%$$%:::$$$=::::::::::::::::::::::::::::::::::::::::::::::::::::::::::::::::::",
":::::::::::::::::::::::%$$%:::$$$=::::::::::::::::::::::::::::::::::::::::::::::::::::::::::::::::::",
":::::::::::::::::::::::-==*%%%===;::::::::::::::::::::::::::::::::::::::::::::::::::::::::::::::::::",
"::::::::::::::::::::::::::=$$$::::::::::::::::::::::::::::::::::::::::::::::::::::::::::::::::::::::",
"::::::::::::::::::::::::::=$$$::::::::::::::::::::::::::::::::::::::::::::::::::::::::::::::::::::::",
"::::::::::::::::::::::::::-%%%::::::::::::::::::::::::::::::::::::::::::::::::::::::::::::::::::::::",
"::::::::::::::::::::::::::::::::::::::::::::::::::::::::::::::::::::::::::::::::::::::::::::::::::::",
"::::::::::::::::::::::::::::::::::::::::::::::::::::::::::::::::::::::::::::::::::::::::::::::::::::",
"::::::::::::::::::::::::::::::::::::::::::::::::::::::::::::::::::::::::::::::::::::::::::::::::::::"
};
