/* XPM */
static char *lapinou_bed_left[] = {
/* columns rows colors chars-per-pixel */
"50 50 102 2 ",
"   c #765C7F",
".  c #90625D",
"X  c #996A5C",
"o  c #A1715A",
"O  c #AA7959",
"+  c #996F66",
"@  c #906B6C",
"#  c #A17562",
"$  c #A47E6E",
"%  c #BD757E",
"&  c #C07F7C",
"*  c #97825F",
"=  c #9A8460",
"-  c #A08060",
";  c #A08863",
":  c #A68865",
">  c #B08462",
",  c #B38767",
"<  c #B68861",
"1  c #BB8F66",
"2  c #B38A6C",
"3  c #AA8572",
"4  c #A18179",
"5  c #AE8778",
"6  c #B58178",
"7  c #BF8178",
"8  c #BB9974",
"9  c #9DA261",
"0  c #AAAA67",
"q  c #ABA168",
"w  c #B0AE6A",
"e  c #C49A6C",
"r  c #C28E72",
"t  c #C79477",
"y  c #CDA872",
"u  c #C7A87D",
"i  c #D1B270",
"p  c #A4C263",
"a  c #ADC867",
"s  c #B4C36B",
"d  c #BBC76E",
"f  c #B0CA69",
"g  c #B4CC6A",
"h  c #B7CE6C",
"j  c #BAD06D",
"k  c #BDD26F",
"l  c #C0D470",
"z  c #E0C37F",
"x  c #EAE178",
"c  c #5C4E92",
"v  c #72578E",
"b  c #7C5B8B",
"n  c #685491",
"m  c #65589A",
"M  c #755B91",
"N  c #7C6788",
"B  c #6D63A2",
"V  c #766DAA",
"C  c #7E75A7",
"Z  c #9D6885",
"A  c #816190",
"S  c #8F7C90",
"D  c #877C9A",
"F  c #967F9B",
"G  c #A96E84",
"H  c #A7758F",
"J  c #B67584",
"K  c #877BAB",
"L  c #C27B83",
"P  c #AF8197",
"I  c #B98394",
"U  c #B6A593",
"Y  c #8E85A1",
"T  c #948CA7",
"R  c #9E8FAD",
"E  c #9F97A6",
"W  c #A89CA0",
"Q  c #A091B3",
"!  c #A094B2",
"~  c #A099B1",
"^  c #B3ABA3",
"/  c #ABA3B2",
"(  c #BBB7B6",
")  c #CC888D",
"_  c #D59496",
"`  c #D99A9A",
"'  c #CDAF81",
"]  c #CDB990",
"[  c #C1BBB1",
"{  c #E8B5AC",
"}  c #DED9AB",
"|  c #D1CEB6",
" . c #EFDEB9",
".. c #F2EBBE",
"X. c #B2A8C5",
"o. c #DDD5DE",
"O. c #F3D8C5",
"+. c #E4DFD4",
"@. c #F3E1C3",
"#. c #F3E9C2",
"$. c #F3ECC1",
"%. c #F3F2C0",
/* pixels */
"l l l l l l l l l l l l l l l l l l l l l l l l l l l l l l l l l l l l l l l l l l l l l l l l l l ",
"l l l l l l l l l l l l l l l l l l l l l l l l l l l l l l h j l j h l l l l l l l l l l l l l l l ",
"l l l l l l l l l l l l l l l l l l l l l l l l l l l l l l p a l a p l l l l l l l l l l l l l l l ",
"l l l l l l l l l l l l l l l a g l g a l l l l l l l l l l h g a g h l l l l l l l l l l l l l l l ",
"l l l l l l l l l l l l l l l p a l a p l l l l l l l l l l l h p h l l l l l l l l l l l l l l l l ",
"l l l l l l l l l l l l l l l l h p h l l l l l l l l l l l l l l l l l l l l l l l l l l l l l l l ",
"l l l l l l l l l l l l l l l l s 9 0 w l l l l l l l l l l w w w d l l l l l l l l l l l l l l l l ",
"l l l l l l l l l l l l l l l l w . . . l l l l l l l l l l . . . w l l l l l l l l l l l l l l l l ",
"l l l l l l l l l l l l l l l ; : , , , ; ; ; ; ; ; ; ; ; ; , , , : ; l l l l l l l l l l l l l l l ",
"l l l l l l l l l l l l l l l . # e e e . . . . . . . . . . e e e # . l l l l l l l l l l l l l l l ",
"l l l l l l l l l l l l l ; . e 1 O O O e e e e e e e e e e O O O 1 e . ; l l l l l l l l l l l l l ",
"l l l l l l l l l l l l l ; . 1 < O O O 1 1 1 3 4 4 4 4 2 1 O O O < 1 . ; l l l l l l l l l l l l l ",
"l l l l l l l l l l l l l ; . O O O O O O O O   c c c c @ O O O O O O . ; l l l l l l l l l l l l l ",
"l l l l l l l l l l l l l ; . O O O O O O +   W [ [ [ [ S   O O O O O . ; l l l l l l g a l j a j l ",
"l l l l l l l l l l l l l ; . O O O O O O @ c [ %.%.%.%.Y c O O O O O . ; l l l l l l a p l h p h l ",
"l l l l l p a l a p l l l ; . O O O ] } c c c [ %.{ { {  .%.c   O O O . ; l l l l l l l l p a l l l ",
"l l l l l a f h f a l l l ; . O > 8 U ^ Y Y Y | %.{ { {  .%.c N 8 > O . ; l l l l l l l l a g l l l ",
"l l l l l l h p h l l l l ; . O 8 } D c %.%.%.%.%.{ { {  .%.c D } 8 O . ; l l l l l l l l l l l l l ",
"l l l l l l k h k l l l l ; . 1 u } D c %.%.%.%.%. . . ...%.c D } u 1 . ; l l l l l l l l l l l l l ",
"l l l l l l l l l l l l l ; . e ' } D c %.%.%.%.%.%.%.%.%.%.c D } ' e . ; l l l l l l l l l l l l l ",
"l l l l l l l l l l l l l ; . e r % b c %.%.%.%.%.%.%.%.%.%.c b % r e . * p h l l l l l l l l l l l ",
"l l l l l l l l l l l l l ; . r 6 Z v c %.%.%.%.%.%.%.%.%.%.c v Z 6 r . = a j l l l l l l l l l l l ",
"l l l l l l l l l l l l l ; . % Z c c c %.%.%.%.%.%.%.%.%.%.c c c Z % . ; l l l l l l l l l l l l l ",
"l l l l l l l l l l l l l ; . % Z c E [ %.| Y | %.%.%.%.%.%.c M H J % . ; l l l l l l l l l l l l l ",
"l l l l l l l l l l l l l ; . % Z c [ %.%.[ c [ %.%.%.%.%.%.c A ) L % . ; l l l l l l l l l l l l l ",
"l l l l l l l l l l l l l ; . % Z c [ %.%.%.%.%.%.%.%.%.%.%.c c c Z % . ; l l l l l l l l l l l l l ",
"l l l l l l l l l l l l l ; . % Z c [ %.%.%.%.$.#.#.$.%.%.%.c n A G % . ; l l l l l l l l l l l l l ",
"l l l l l l l l l l l l l ; . % Z c [ %.%.%.%.@.O.O.@.%.%.%.c A ) L % . ; l l l l l l l l l l l l l ",
"l l l l l l l l l l l l l ; . % J H F Y ~ ~ ~ ! Q Q ! ~ T Y P I ) L % . ; l l l l l l l l l l l l l ",
"l l l l l l l l l l l l l ; . % L ) A c V V V V V V V V m c ` _ ) L % . ; l l l l l l l l l l l l l ",
"l l l l l l l l l l l l l ; . % L ) z x V V V V V V ~ %.+.o.c A ) L % . ; l l l l l l l l l l l l l ",
"l l l l l l l l l l l l l ; . % L ) z x B C ~ ~ ~ ~ ( %.+.o.c A ) L % . ; l l l l l l l l l l l l l ",
"l l l l l l l l l l l l l ; . % L ) z x c Y %.%.%.%.%.%.+.o.c A ) L % . ; l l l l l l l l l l l l l ",
"l l l l l l l l l l l l l ; . % & t y i c Y %.%.%.%.%.%./ K 4 5 t & % . ; l l l l l l l l l l l l l ",
"l l l l l l l l l l l l l ; . % 7 e e e c Y %.%.%.%.%.%.Y c e e e 7 % . ; l l l l l l l l l l l l l ",
"l l l l l l l l l l l l l ; . e 1 O O O e 4 c X.o.o.X.c 4 e O O O 1 e . ; l l l l l l l l l l l l l ",
"l l l l l l l l l l l l l ; . 1 < O O O 1 $   R X.X.R   $ 1 O O O < 1 . ; l l l l l l l l l l l l l ",
"l l l l l l l l l l l l l ; . O O O O O O O O   c c   O O O O O O O O . ; l l l l l l l l l l l l l ",
"l j a j l a g l l l l l l ; . O O O O O O O O + @ @ + O O O O O O O O . ; l l l l l l l l l l l l l ",
"l h p h l p a l l l l l l ; . O O O O O O O O O O O O O O O O O O O O . ; l l l l l l l l l l l l l ",
"l l l a p l l l l l l l l ; . O O O X . . . . . . . . . . . . X O O O . ; l l l p a l a p l l l l l ",
"l l l g a l l l l l l l l q ; o o o - ; ; ; ; ; ; ; ; ; ; ; ; - o o o ; q l l l a f h f a l l l l l ",
"l l l l l l l l l l l l l l l . . . w l l l l l l l l l l l l w . . . l l l l l l h p h l l l l l l ",
"l l l l l l l l l l l l l l l w w w d l l l l l l l l l l l l d w w w l l l l l l k h k l l l l l l ",
"l l l l l l l l l l l l l l l l l l l l l l l l l l l l l l l l l l l l l l l l l l l l l l l l l l ",
"l l l l l l l l l l l h p h l p a l l l l l l l l l l l l l l l l l l l l l l l l l l l l l l l l l ",
"l l l l l l l l l l l j a g h a g l l l l l l l l l l l l l l l l l l l l l l l l l l l l l l l l l ",
"l l l l l l l l l l l l l a p l l l l l l l l l l l l l l l l l l l l l l l l l l l l l l l l l l l ",
"l l l l l l l l l l l l l j h l l l l l l l l l l l l l l l l l l l l l l l l l l l l l l l l l l l ",
"l l l l l l l l l l l l l l l l l l l l l l l l l l l l l l l l l l l l l l l l l l l l l l l l l l "
};
