/* XPM */
static char *lapinou[] = {
/* columns rows colors chars-per-pixel */
"50 50 39 1 ",
"  c #8C9B73",
". c #94987F",
"X c #9FA77B",
"o c #A4B275",
"O c #AAB678",
"+ c #A4C263",
"@ c #ADC867",
"# c #B0CA69",
"$ c #B4CC6A",
"% c #B7CE6C",
"& c #BAD06D",
"* c #BDD26F",
"= c #B5C574",
"- c #C0D470",
"; c #5C4E92",
": c #65589A",
"> c #7D7B87",
", c #6D63A2",
"< c #766DAA",
"1 c #8379A2",
"2 c #877BAB",
"3 c #8D9482",
"4 c #97998B",
"5 c #999C88",
"6 c #8F8A9B",
"7 c #949095",
"8 c #8E85A1",
"9 c #8C81A5",
"0 c #8F87AC",
"q c #A099B1",
"w c #AAA6A3",
"e c #C1BBB1",
"r c #CFCAB9",
"t c #E2E0BB",
"y c #B2A8C5",
"u c #DDD5DE",
"i c #ECE8CA",
"p c #F1EFC3",
"a c #F3F2C0",
/* pixels */
"--------------------------------------------------",
"------------------------------%&-&%---------------",
"------------------------------+@-@+---------------",
"---------------@$-$@----------%$@$%---------------",
"---------------+@-@+-----------%+%----------------",
"----------------%+%-------------------------------",
"----------------&@&-------------------------------",
"--------------------------------------------------",
"--------------------------------------------------",
"--------------------------------------------------",
"--------------------------------------------------",
"----------------=XXXXO------OXXXX=----------------",
"----------------X;;;;>------>;;;;X----------------",
"--------------->7eeeew>O--O>weeee7>--------$@-&@&-",
"---------------;8aaaae;X--X;eaaaa8;--------@+-%+%-",
"-----+@-@+-----;8aaaae;;;;;;eaaaa8;----------+@---",
"-----@#%#@-----;8aaaar222222raaaa8;----------@$---",
"------%+%------;8aaaaiuuuuuuiaaaa8;---------------",
"------*%*------;8aaaapiiiiiipaaaa8;---------------",
"---------------;8aaaaaaaaaaaaaaaa8;---------------",
"---------------;8aaaaaaaaaaaaaaaa8;-%+%-----------",
"-------------OX;8aaaaaaaaaaaaaaaa8;Xo@&-----------",
"------------->;;8aaaaaaaaaaaaaaaa8;;>-------------",
"-------------OX;8aaaaaaaaaaaaaaaa8;XO-------------",
"---------------;8aaaaaaaaaaaaaaaa8;---------------",
"------------->;;8aaaaaaaaaaaaaaaa8;;>-------------",
"-------------.>;8aaaaaaaaaaaaaaaa8;>.-------------",
"---------------;8aaaaaaaaaaaaaaaa8;---------------",
"---------------X5888qqqqqqqqqq8883 ---------------",
"----------------X;;;<<<<<<<<<<;;; +---------------",
"---------------;2uia<<<:;;:<<<aiu2;---------------",
"---------------;2uiaq0,1881,0qaiu2;---------------",
"---------------;2uiaae;eaae;eaaiu2;---------------",
"---------------X4298atetaateta8924X---------------",
"----------------X;;;aaaaaaaaaa;;;X----------------",
"------------------>;uuu2;;2uuu;>------------------",
"------------------.>yyy6>>6yyy>.------------------",
"--------------------;;;X--X;;;--------------------",
"-&@&-@$-------------XXX=--=XXX--------------------",
"-%+%-+@-------------------------------------------",
"---@+-----------------------------------+@-@+-----",
"---$@-----------------------------------@#%#@-----",
"-----------------------------------------%+%------",
"-----------------------------------------*%*------",
"--------------------------------------------------",
"-----------%+%-+@---------------------------------",
"-----------&@$%@$---------------------------------",
"-------------@+-----------------------------------",
"-------------&%-----------------------------------",
"--------------------------------------------------"
};
