/* XPM */
static char *lapinou_left[] = {
/* columns rows colors chars-per-pixel */
"50 50 55 1 ",
"  c #8C9B73",
". c #9DAE72",
"X c #98A378",
"o c #9FA77B",
"O c #A8BD6E",
"+ c #AAB678",
"@ c #A4C263",
"# c #ADC867",
"$ c #B0CA69",
"% c #B4CC6A",
"& c #B7CE6C",
"* c #BAD06D",
"= c #BDD26F",
"- c #B5C574",
"; c #C0D470",
": c #C9D772",
"> c #CED873",
", c #DCDD75",
"< c #EAE178",
"1 c #5C4E92",
"2 c #675D8E",
"3 c #65589A",
"4 c #726C8A",
"5 c #747582",
"6 c #777784",
"7 c #7D7B87",
"8 c #6D63A2",
"9 c #766DAA",
"0 c #7E75A7",
"q c #877BAB",
"w c #8E8C92",
"e c #949095",
"r c #8E85A1",
"t c #948CA7",
"y c #9F97A6",
"u c #A091B3",
"i c #A094B2",
"p c #A099B0",
"a c #A099B1",
"s c #AAA6A3",
"d c #ABA3B2",
"f c #BBB7B6",
"g c #C1BBB1",
"h c #E8B5AC",
"j c #D1CEB6",
"k c #EFDEB9",
"l c #F2EBBE",
"z c #B2A8C5",
"x c #DDD5DE",
"c c #F3D8C5",
"v c #E4DFD4",
"b c #F3E1C3",
"n c #F3E9C2",
"m c #F3ECC1",
"M c #F3F2C0",
/* pixels */
";;;;;;;;;;;;;;;;;;;;;;;;;;;;;;;;;;;;;;;;;;;;;;;;;;",
";;;;;;;;;;;;;;;;;;;;;;;;;;;;;;&*;*%;;;;;;;;;;;;;;;",
";;;;;;;;;;;;;;;;;;;;;;;;;;;;;;@#;#@;;;;;;;;;;;;;;;",
";;;;;;;;;;;;;;;#%;%#;;;;;;;;;;&%#%*;;;;;;;;;;;;;;;",
";;;;;;;;;;;;;;;@#;#@;;;;;;;;;;;&@%;;;;;;;;;;;;;;;;",
";;;;;;;;;;;;;;;;&@&;;;;;;;;;;;;;;;;;;;;;;;;;;;;;;;",
";;;;;;;;;;;;;;;;*#*;;;;;;;;;;;;;;;;;;;;;;;;;;;;;;;",
";;;;;;;;;;;;;;;;;;;;;;;;;;;;;;;;;;;;;;;;;;;;;;;;;;",
";;;;;;;;;;;;;;;;;;;;;;;;;;;;;;;;;;;;;;;;;;;;;;;;;;",
";;;;;;;;;;;;;;;;;;;;;;;;;;;;;;;;;;;;;;;;;;;;;;;;;;",
";;;;;;;;;;;;;;;;;;;;;;;;;;;;;;;;;;;;;;;;;;;;;;;;;;",
";;;;;;;;;;;;;;;;;;;;;;;+oooo-;;;;;;;;;;;;;;;;;;;;;",
";;;;;;;;;;;;;;;;;;;;;;;71111o;;;;;;;;;;;;;;;;;;;;;",
";;;;;;;;;;;;;;;;;;;;;+7sgggge7;;;;;;;;;;;;;%#;*#=;",
";;;;;;;;;;;;;;;;;;;;;o1gMMMMr1;;;;;;;;;;;;;#@;*@%;",
";;;;;@#;#@;;;;;;;;;;111gMhhhkM17;;;;;;;;;;;;;@#;;;",
";;;;;#$&$#;;;;;;;;+orrrjMhhhkM17;;;;;;;;;;;;;#%;;;",
";;;;;;&@&;;;;;;;;;71MMMMMhhhkM17;;;;;;;;;;;;;;;;;;",
";;;;;;=&=;;;;;;;;;71MMMMMkkklM17;;;;;;;;;;;;;;;;;;",
";;;;;;;;;;;;;;;;;;71MMMMMMMMMM17;;;;;;;;;;;;;;;;;;",
";;;;;;;;;;;;;;;;;;71MMMMMMMMMM17=#@;%@=;;;;;;;;;;;",
";;;;;;;;;;;;;;;;-o41MMMMMMMMMM14o##%$#*;;;;;;;;;;;",
";;;;;;;;;;;;;;;;o111MMMMMMMMMM111o=@$=;;;;;;;;;;;;",
";;;;;;;;;;;;;;;;o1ygMjrjMMMMMM14o-;*=;;;;;;;;;;;;;",
";;;;;;;;;;;;;;;;o1gMMg1gMMMMMM17;;;;;;;;;;;;;;;;;;",
";;;;;;;;;;;;;;;;o1gMMMMMMMMMMM111o;;;;;;;;;;;;;;;;",
";;;;;;;;;;;;;;;&X1gMMMMmnnmMMM127+;;;;;;;;;;;;;;;;",
";;;;;;;;;;;;;;;@ 1gMMMMbccbMMM17;;;;;;;;;;;;;;;;;;",
";;;;;;;;;;;;;;;&O wraaaiuuiatr .;%$;;;;;;;;;;;;;;;",
";;;;;;;;;;;;;;;;&@519999999931@#=#@=;;;;;;;;;;;;;;",
";;;;;;;;;;;;;;;;;;,<999999aMvx15@%;;;;;;;;;;;;;;;;",
";;;;;;;;;;;;;;;;;;,<80aaaafMvx16$=;;;;;;;;;;;;;;;;",
";;;;;;;;;;;;;;;;;;,<1rMMMMMMvx17;;;;;;;;;;;;;;;;;;",
";;;;;;;;;;;;;;;;;;:>1rMMMMMMdqo+;;;;;;;;;;;;;;;;;;",
";;;;;;;;;;;;;;;;;;;;1rlMMMMMr1;;;;;;;;;;;;;;;;;;;;",
";;;;;;;;;;;;;;;;;;;;;o1zxxz1o;;;;;;;;;;;;;;;;;;;;;",
";;;;;;;;;;;;;;;;;;;;;+7azza7+;;;;;;;;;;;;;;;;;;;;;",
";;;;;;;;;;;;;;;;;;;;;;;7117;;;;;;;;;;;;;;;;;;;;;;;",
";*#*;#%;;;;;;;;;;;;;;;;+oo+;;;;;;;;;;;;;;;;;;;;;;;",
";&@&;@#;;;;;;;;;;;;;;;;;;;;;;;;;;;;;;;;;;;;;;;;;;;",
";;;#@;;;;;;;;;;;;;;;;;;;;;;;;;;;;;;;;;;;@$=$@;;;;;",
";;;%#;;;;;;;;;;;;;;;;;;;;;;;;;;;;;;;;;;;#$%$#=;;;;",
";;;;;;;;;;;;;;;;;;;;;;;;;;;;;;;;;;;;;;;;=*@*;;;;;;",
";;;;;;;;;;;;;;;;;;;;;;;;;;;;;;;;;;;;;;;;;=%=;;;;;;",
";;;;;;;;;;;;;;;;;;;;;;;;;;;;;;;;;;;;;;;;;;;;;;;;;;",
";;;;;;;;;;;&@&;@#;;;;;;;;;;;;;;;;;;;;;;;;;;;;;;;;;",
";;;;;;;;;;;*#%&#%;;;;;;;;;;;;;;;;;;;;;;;;;;;;;;;;;",
";;;;;;;;;;;;;#@;;;;;;;;;;;;;;;;;;;;;;;;;;;;;;;;;;;",
";;;;;;;;;;;;;*&;;;;;;;;;;;;;;;;;;;;;;;;;;;;;;;;;;;",
";;;;;;;;;;;;;;;;;;;;;;;;;;;;;;;;;;;;;;;;;;;;;;;;;;"
};
