/* XPM */
static char *tree_2[] = {
/* columns rows colors chars-per-pixel */
"50 50 158 2 ",
"   c #5F7A79",
".  c #777D78",
"X  c #90625D",
"o  c #AA7959",
"O  c #AE7E5C",
"+  c #8A4A70",
"@  c #985573",
"#  c #9B5875",
"$  c #A35B70",
"%  c #A75F72",
"&  c #A35D74",
"*  c #806A66",
"=  c #917964",
"-  c #816374",
";  c #8F6476",
":  c #926676",
">  c #916F74",
",  c #897477",
"<  c #867C77",
"1  c #8E707A",
"2  c #997778",
"3  c #96787E",
"4  c #9F7B7A",
"5  c #A66076",
"6  c #AB6374",
"7  c #AC6475",
"8  c #AF6776",
"9  c #AC6779",
"0  c #A26A7A",
"q  c #A56C7B",
"w  c #B16977",
"e  c #B46C79",
"r  c #B76F7B",
"t  c #A3747A",
"y  c #A27E7B",
"u  c #B7707C",
"i  c #B8707B",
"p  c #BA727C",
"a  c #BD757E",
"s  c #64837A",
"d  c #69877C",
"f  c #698D7B",
"g  c #718E7B",
"h  c #6E967C",
"j  c #7F9876",
"k  c #709079",
"l  c #789478",
"z  c #739A7E",
"x  c #8A836B",
"c  c #9D8464",
"v  c #999B64",
"b  c #808278",
"n  c #9B857F",
"m  c #94897D",
"M  c #819C7C",
"N  c #A08863",
"B  c #B38560",
"V  c #B38767",
"C  c #B68962",
"Z  c #B98D64",
"A  c #BB8F65",
"S  c #B79369",
"D  c #A7837E",
"F  c #A9867F",
"G  c #9DB868",
"H  c #8CA575",
"J  c #90A977",
"K  c #AAA76C",
"L  c #A3AB69",
"P  c #AEB26E",
"I  c #A6BE6C",
"U  c #A0B673",
"Y  c #BBB971",
"T  c #BABF71",
"R  c #C49A6C",
"E  c #C1A46E",
"W  c #C0AA6E",
"Q  c #A4C263",
"!  c #ADC867",
"~  c #ABC16E",
"^  c #AEC36F",
"/  c #B0CA69",
"(  c #B4CC6A",
")  c #B4CB6D",
"_  c #B7CE6C",
"`  c #B7CD6F",
"'  c #BAD06D",
"]  c #BDD26F",
"[  c #AAC072",
"{  c #B3C870",
"}  c #B5CA71",
"|  c #B7C973",
" . c #B9CB72",
".. c #BACD72",
"X. c #BCCF71",
"o. c #BFD370",
"O. c #C0D470",
"+. c #BD7882",
"@. c #C07E86",
"#. c #729080",
"$. c #779E80",
"%. c #799884",
"&. c #7CA282",
"*. c #939584",
"=. c #9B9B84",
"-. c #9F9F86",
";. c #AF8B82",
":. c #B38583",
">. c #B39D8A",
",. c #83A181",
"<. c #81A186",
"1. c #80A684",
"2. c #84A587",
"3. c #89AB89",
"4. c #88AC88",
"5. c #89AF88",
"6. c #94A287",
"7. c #97A589",
"8. c #96AE8B",
"9. c #9CA889",
"0. c #8EB38A",
"q. c #90B28C",
"w. c #94B68E",
"e. c #9AB28B",
"r. c #97BB8E",
"t. c #9ABE8F",
"y. c #9ABD91",
"u. c #A2A68B",
"i. c #BCA28A",
"p. c #AEB08D",
"a. c #BCB88E",
"s. c #A5BF92",
"d. c #C48087",
"f. c #C7858C",
"g. c #CB898E",
"h. c #D08E91",
"j. c #D29596",
"k. c #D69898",
"l. c #D59B9A",
"z. c #D99A9A",
"x. c #DEA3A0",
"c. c #E3ACA6",
"v. c #E8B5AC",
"b. c #9FC392",
"n. c #A0C493",
"m. c #A4C994",
"M. c #A6CC95",
"N. c #B7C192",
"B. c #ADD197",
"V. c #AED499",
"C. c #B4D496",
"Z. c #B0D599",
"A. c #B2D799",
"S. c #B5D899",
"D. c #B9DB9A",
"F. c #BBDC9A",
"G. c #BEDD9A",
"H. c #C2E09A",
/* pixels */
"O.O.O.O.O.O.O.O.O.O.O.O.O.O.O.O.O.O.j                             U O.O.O.O.O.O.O.O.O.O.O.O.O.O.O.O.",
"O.O.O.O.O.O.O.O.O.O.O.O.O.O.O.U U U M #.%.%.%.%.%.%.%.%.%.%.#.#.#.J U O.O.O.O.O.O.O.O.O.O.O.O.O.O.O.",
"O.O.O.O.O.O.O.O.O.O.O.O.O.O.O.      2.r.V.V.V.V.V.V.V.V.V.V.t.r.y.#.  o.O.O.O.O.O.O.O.O.O.O.O.O.O.O.",
"O.O.O.O.O.O.O.O.O.O.O.[ j j j 2.3.w.n.M.V.Z.F.F.G.F.S.V.D.F.C.B.m.q.,.M M j I O.O.O.O.O.O.O.O.O.O.O.",
"O.O.O.O.O.O.O.O.O.O.O.U       r.b.V.V.V.V.S.H.H.H.H.F.V.D.H.H.F.V.b.r.      U O.O.O.O.O.O.O.O.O.O.O.",
"O.O.O.O.O.O.O.O.O.O.  #.r.M.V.V.V.V.V.V.V.S.H.H.H.H.F.V.F.H.H.F.V.V.V.r.r.t.#.  O.O.O.O.O.O.O.O.O.O.",
"O.O.O.O.O.O.O.O.[ U #.<.b.B.S.S.S.S.Z.V.S.D.H.H.H.F.S.V.D.D.F.D.V.V.V.b.b.b.&.g U I O.O.O.O.O.O.O.O.",
"O.O.O.O.O.O.O.O.j   r.b.V.F.H.H.H.H.S.V.H.H.H.H.H.V.V.V.V.V.V.V.V.V.V.V.B.B.b.r.  M O.O.O.O.O.O.O.O.",
"O.O.O.O.O.O.[ j ,.2.r.b.V.F.H.H.H.H.G.F.H.H.H.D.S.V.V.V.D.F.F.F.G.S.B.V.V.V.b.r.2.,.M [ O.O.O.O.O.O.",
"O.O.O.O.O.O.U   2.r.r.b.V.F.H.H.H.H.H.H.H.H.H.Z.V.V.V.V.D.H.H.H.H.Z.V.V.V.V.b.r.y.2.  U O.O.O.O.O.O.",
"O.O.O.O.O.O.U   w.V.V.V.V.V.V.V.S.H.H.H.V.V.V.V.V.V.V.V.F.H.8 8 8 a.H.8 6 $ =.t.w.2.  U O.O.O.O.O.O.",
"O.O.O.O.O.U J #.y.V.V.V.V.V.V.V.Z.F.F.G.V.V.V.V.V.V.V.V.N.a.d.@.+.i.a.r 8 8 n *.n.0.g J U O.O.O.O.O.",
"O.O.O.O.O.  #.r.M.V.V.V.V.V.V.V.V.V.V.V.V.V.V.V.V.V.V.V.;.8 v.c.z.+.8 a a a # + B.M.y.g   O.O.O.O.O.",
"O.O.O.O.O.  #.r.M.V.V.V.V.V.V.V.V.V.V.V.V.V.V.V.V.V.V.V.F % x.k.@.+.i a a a # + V.m.y.#.  O._ ! X.O.",
"O.O.O.O.O.  #.r.M.V.V.V.V.V.V.V.V.V.V.V.V.V.V.V.V.V.V.V.D $ z.h.a a a a a a # + V.m.r.#.  O._ Q ) O.",
"O.O.O.O.O.  #.r.r.r.8 8 8 p.V.8 6 $ =.t.V.V.V.V.V.V.V.V.B.V.$ 8 a r 8 a 9 + *.r.y.r.r.#.  Q ! O.O.O.",
"O.O.O.O.O.  #.r.9.9.d.@.+.>.p.e w 6 n *.V.V.V.V.V.V.V.V.V.V.4 t 9 $ & 9 q 3 6.b.w.0.2.M j ! ( O.O.O.",
"O.O.O.O.O.  #.r.y 8 v.c.l.+.8 a a a # + V.V.V.V.V.V.V.V.V.V.r.*.+ + + + 3 V.b.r.r.1.  U O.O.O.O.O.O.",
"O.O.O.O.O.  #.r.y % x.l.d.a u a a a # + b.b.b.b.b.V.V.V.m.b.M.s.u.u.u.*.7.b.y.r.t.2.  U O.O.O.O.O.O.",
"O.O.O.O.O.  g r.y $ z.h.a a a a a a # + r.r.r.r.r.V.V.V.b.r.V.V.V.V.V.r.y.r.r.r.r.2.  U O.O.O.O.O.O.",
"O.O.O.O.O.O.U   2.t.$ % a u 8 p 9 + *.r.r.r.r.r.r.r.r.r.r.r.r.r.r.r.r.r.r.r.r.r.r.r.r.#.  o.O.O.O.O.",
"O.O.O.O.O.O.U   2.t.y t 9 5 $ 9 0 1 6.r.r.r.r.r.r.r.r.r.r.r.r.r.r.r.r.r.r.r.r.r.r.r.r.#.  O.O.O.O.O.",
"O.O.O.O.O.O.U   ,.t.t.*.+ + + + 1 r.r.r.r.r.r.r.r.r.r.r.r.r.r.r.r.r.r.r.r.r.r.r.r.r.r.#.  O.O.O.O.O.",
"O.O.O.O.O.j l f 3.t.w.8.*.*.*.*.6.r.r.r.r.r.r.r.r.r.r.r.r.r.r.r.r.r.r.r.r.r.r.r.r.0.&.d   O.O.O.O.O.",
"O.O.O.O.O.  s h 5.r.r.r.r.r.r.r.r.r.r.r.r.r.r.r.r.r.r.r.r.r.r.r.w.y.t.t.r.r.r.r.t.0.h s   O.O.O.O.O.",
"O.O.O.O.O.  s h h h h &.r.&.h h &.r.r.r.h h h h h r.r.r.r.r.r.r.w.,.g h h h h h h h h s   O.O.O.O.O.",
"O.O.O.O.O.  s h h h h &.r.&.h h &.r.r.r.h h h h h -.-.-.e.r.-.-.=.M h h h h h h h h h s   O.O.O.O.O.",
"O.O.O.O.O.  s h h h h &.r.&.h h &.r.r.r.h h h h h 8 8 8 -.r.8 6 $ g h h h h h h h h k s   O.O.O.O.O.",
"O.O.O.O.O.  s h h h h z &.z h h z &.&.&.0.4.5.m 2 k.j.g.:.D i r e : - 5.5.5.$.h h f s H U O.O.O.O.O.",
"O.O.O.O.O.  s h h h h h h h h h h h h h r.r.r.D 8 v.c.z.+.8 a a a # + r.r.r.&.h h f   U O.O.O.O.O.O.",
"O.O.O.O.O.O.U   f h h &.r.r.r.r.5.h h h h h h > $ z.h.a a a a a a # + h h h h h h f   U O.O.O.O.O.O.",
"O.O.O.O.O.O.U   f h h $.5.5.5.0.&.h h h h h h < > f.d.a i i a u 9 ; - h h h h h h f   U O.O.O.O.O.O.",
"O.O.O.O.O.O.U   f h h h h h h h h h h h h h h h h $ 7 +.e 8 a 9 + . h h h h h h h f   U O.O.O.O.O.O.",
"O.O.O.O.O.O.} U l s h h h h h h h h h h h h h h h b , # @ # # : . g h h h h h h s l U ) O.O.O.O.O.O.",
"O.O.O.O.O.O.O.O.j   h h h h h h h h h h h h h h h h . + + + + - h h h h h h h h   j O.O.O.O.O.O.O.O.",
"O.O.O.O.O.O.O.O.O.O.      f h h h h h z h h h h h h h h h h h h h h h           O.O.O.O.O.O.O.O.O.O.",
"O.O.O.O.O.O.O.O.O.O.M M j g f f f f f f f f f d d d d f f f f f f f f M j j j j O.O.O.O.O.O.O.O.O.O.",
"O.O.O.O.O.O.O.O.O.O.O.O.O.j                                           O.O.O.O.O.O.O.O.O.O.O.O.O.O.O.",
"O.' ! ' O.! _ o.O.O.O.O.O.I U U U U x * = = = = = = = = = = * x U U U O.O.O.O.O.O.O.O.O.O.O.O.O.O.O.",
"O._ Q _ O.Q ! o.O.O.O.O.O.O.O.O.O.O.N X o o o o o o o o o o X N ] o.o.O.O.O.O.O.O.O.O.O.O.O.O.O.O.O.",
"O.O.O.! I O.O.O.O.O.O.O.O.O.O.O.O.O.N X C B o o o o o o B C X N O.O.O.O.O.O.O.O.Q ! O.! Q O.O.O.O.O.",
"O.O.O./ ! O.O.O.O.O.O.O.O.O.O.O.O.X.N X C B O O O O O O B C X N X.O.O.O.O.O.O.O.! / _ / ! O.O.O.O.O.",
"O.O.O.O.O.O.O.O.O.O.O.O.] O.O.O.X.| c X C C C B C C C C C C X N | o.O.O.O.O.O.O.O._ Q _ O.O.O.O.O.O.",
"O.O.O.O.O.O.O.O.O.O.O.O.O.O. . .| | c X C A R C B R A R A R X N | | .. .X.O.O.O.O.] _ ] O.O.O.O.O.O.",
"O.O.O.O.O.O.O.O.O.O.O.O.O.O.| | | | c X C A R A B R R R R R X = | | | | | O.O.O.O.O.O.O.O.O.O.O.O.O.",
"O.O.O.O.O.O.O.O.O.O.O.) G I | G v X V R R R R R R R R R R R R V X K | | | | o.O.O.O.O.O.O.O.O.O.O.O.",
"O.O.O.O.O.O.O.O.O.O.O. .I ~ I I L c A R R R R R R R R R R R R Z c P | |  .} o.O.O.O.O.O.O.O.O.O.O.O.",
"O.O.O.O.O.O.O.O.O.O.O.] ..I U  .| | W R R R R R R R R R R R R Y | | | | {  ...O.O.O.O.O.O.O.O.O.O.O.",
"O.O.O.O.O.O.O.O.O.O.O.O.' ) ^ | | | Y Y Y Y Y E R R E Y Y Y Y T | | | |  .X.O.O.O.O.O.O.O.O.O.O.O.O.",
"O.O.O.O.O.O.O.O.O.O.O.O.O...)  .| | | |  .| T Y R R E | | | | | | | | | ..O.O.O.O.O.O.O.O.O.O.O.O.O."
};
