/* XPM */
static char *tree[] = {
/* columns rows colors chars-per-pixel */
"50 50 89 1 ",
"  c #5F7A79",
". c #90625D",
"X c #AA7959",
"o c #AE7E5C",
"O c #806A66",
"+ c #917964",
"@ c #64837A",
"# c #69877C",
"$ c #698D7B",
"% c #6E967C",
"& c #7F9876",
"* c #709079",
"= c #789478",
"- c #739A7E",
"; c #B2845F",
": c #8A836B",
"> c #9D8464",
", c #999B64",
"< c #819C7C",
"1 c #A08863",
"2 c #B38767",
"3 c #B68962",
"4 c #B98D64",
"5 c #BB8F65",
"6 c #B79369",
"7 c #9DB868",
"8 c #8CA575",
"9 c #90A977",
"0 c #AAA76C",
"q c #A3AB69",
"w c #AEB26E",
"e c #A6BE6C",
"r c #A0B673",
"t c #BBB971",
"y c #BABF71",
"u c #C49A6C",
"i c #C1A46E",
"p c #C0AA6E",
"a c #A4C263",
"s c #ADC867",
"d c #AEC36F",
"f c #B0CA69",
"g c #B4CC6A",
"h c #B4CB6D",
"j c #B7CE6C",
"k c #B7CD6F",
"l c #BAD06D",
"z c #BDD26F",
"x c #AAC072",
"c c #B3C870",
"v c #B5CA71",
"b c #B7C973",
"n c #B9CB72",
"m c #BACD72",
"M c #BCCF71",
"N c #BFD370",
"B c #C0D470",
"V c #729080",
"C c #779E80",
"Z c #799884",
"A c #7CA282",
"S c #83A181",
"D c #81A186",
"F c #80A684",
"G c #84A587",
"H c #85AB86",
"J c #89AB89",
"K c #89AF88",
"L c #8EB38A",
"P c #94B68E",
"I c #97BB8E",
"U c #9ABE8F",
"Y c #9ABD91",
"T c #9CC190",
"R c #9FC392",
"E c #A0C493",
"W c #A5C792",
"Q c #A6CC95",
"! c #AACD94",
"~ c #ADD197",
"^ c #AED499",
"/ c #B4D496",
"( c #B0D599",
") c #B5D899",
"_ c #B9DB9A",
"` c #BBDC9A",
"' c #BEDD9A",
"] c #C0DF9A",
"[ c #C2E09A",
/* pixels */
"BBBBBBBBBBBBBBBBBB&              rBBBBBBBBBBBBBBBB",
"BBBBBBBBBBBBBBBrrr<VZZZZZZZZZZVVV9rBBBBBBBBBBBBBBB",
"BBBBBBBBBBBBBBB   GI^^^^^^^^^^UIIV BBBBBBBBBBBBBBB",
"BBBBBBBBBBBx&&&GJPEQ^(``'`)^_`/~!KG<<&eBBBBBBBBBBB",
"BBBBBBBBBBBr   IR^^^^)[[[[`^_[['^RI   rBBBBBBBBBBB",
"BBBBBBBBBB VIQ^^^^^^^)[[[]`^`]]`^^^IIIV BBBBBBBBBB",
"BBBBBBBBxrVDR~))))(^)_[[[')^__'_^^^RRRDVreBBBBBBBB",
"BBBBBBBB& IR^`[[[[)^[[[[]^^^^^^^^^^^^^RI <BBBBBBBB",
"BBBBBBx&SGIR^`[[[[''[[]_)(^^_'``'(^^^^RIGS<xBBBBBB",
"BBBBBBr GIIR^`[[[[][[[])^^^^_][][)^^^^RIIH rBBBBBB",
"BBBBBBr P^^^^^^^)[][(^^^^^^^'][[][[[[[WIIG rBBBBBB",
"BBBBBr9VY^^^^^^^('``^^^^^^^^_``''][[[[!ERL*9rBBNBB",
"BBBBB VIQ^^^^^^^(^^^^^^^^^^^^^^^^`][[])^^QIV NNNBB",
"BBBBB VIQ^^^^^^^^^^^^^^^^^^^^^^^^)))))(^^QIV NlsMB",
"BBBBB VIQ^^^^^^^^^^^^^^^^^^^^^^^^^^^^^^^^QIV NlajB",
"BBBBB VIIIIR^^^^QIII^^^^^^^^^^IIIII^^^RIIIIV afBBB",
"BBBBB VIIIIR^^^^QIII^^^^^^^^^^IIIII^^^RIILG<&fgNBB",
"BBBBB VIIIIR^^^^QIII^^^^^^^^^^IIIII^^^RIIG rBBNNBB",
"BBBBB *IIIIURRRRRIIIRRRRR^^^WRQQQQQRRRIIIG rBBBBBB",
"BBBBB *IIIIIIIIIIIIIIIIII^^^RI^^^^^IIIIIIG rBBBBBB",
"BBBBBBr GIIIIQ^^^^RIIIIIIIIIIIIIIIIIIIIIIIIV BBBBB",
"BBBBBBr GIIIUEQQQQYIIIIIIIIIIIIIIIIIIIIIIIIV BBBBB",
"BBBBBBr GIIIIIIIIIIIIIIIIIIIIIIIIIIIIIIIIIIV BBBBB",
"BBBBB<=$HIIIIIIIIIIIIIIIIIIIIIIIIIIIIIIIILA# BBBBB",
"BBBBB @%KIIIIIIIIIIIIIIIIIIIIIIIIIIIIIIIUL%@ BBBBB",
"BBBBB @%%%%AIA%%AIII%%%%%IIIIIIIIA%%%%%%%%%@ BBBBB",
"BBBBB @%%%%AIA%%AIII%%%%%IIIIIIIIA%%%%%%%%*# BBBBB",
"BBBBB @%%%%AIA%%AIII%%%%%IIIIIIIIA%%%%%%%%*  BBBBB",
"BBBBB @%%%%-A-%%-AAAKKKKKIIIHAAAAHKKKKC%%$@8rBBBBB",
"BBBBB @%%%%%%%%%%%%%IIIIIIIIA%%%%KIIIIA%%$ rBBBBBB",
"BBBBBBr $%-AIIIIK%%%%%%%%%%%%%%%%%%%%%%%%$ rBBBBBB",
"BBBBBBr $%%-KKKKF%%%%%%%%%%%%%%%%%%%%%%%%$ rBBBBBB",
"BBBBBBr $%%%%%%%%%%%%%%%%%%%%%%%%%%%%%%%%$ rNBBBBB",
"BBBBBBvr=@%%%%%%%%%%%%%%%%%%%%%%%%%%%%%% =rgNzBBBB",
"BBBBBBBB< %%%%%%%%%-%%%%%%%%%%%%%%%%%%** 8NNBBBBBB",
"BBBBBBBBzB   $%%%%%*%%%%%%%%%%%%%%%     zzzNBBBBBB",
"BBBBBBBBBB<<<*#$$$$$$$$$$$$$$$$$$$$<<&<&BBBBBBBBBB",
"BBBBBBBBBBBBB&                     BBzBBBBBBBBBBBB",
"BlslBsgBBBBBBerrrr+ ++++++++++O:rrrBBBBBBBBBBBBBBB",
"BnajBasBBBBBBBBBBB;.XXXXXXXXXX.1BBBBBBBBBBBBBBBBBB",
"BBBsaBBBBBBBBBBBBB1.33XXXXXX33.1BBBBBBBBxsBsaBBBBB",
"BBBgsBBBBBBBBBBBBM1.3;ooooooo3.1BBBBBBBBssggsBBBBB",
"BBBBBBBBBBBBBBBBMb>.3333333333.>bnBBBBBBzgagBBBBBB",
"BBBBBBBBBBBBBBjhnb>.33u33u5u5u.>nnnnjBBBBBgBBBBBBB",
"BBBBBBBBBBBBBzvbbb>.34u43uuuuu.>bbbbnBBBBBBBBBBBBB",
"BBBBBBBBBBBjqxb7,.2uuuuuuuuuuuu2.0bbbvBBBBBBBBBBBB",
"BBBBBBBBBBBneedeq>6uuuuuuuuuuuu61wbbvvBBBBBBBBBBBB",
"BBBBBBBBBBBMne7bbniuuuuuuuuuuuupbbbbnnBBBBBBBBBBBB",
"BBBBBBBBBBBBMcxnnvyttttiuuittttybbbbbBBBBBBBBBBBBB",
"BBBBBBBBBBBBBnbbbbbbbbbpuupbbbbbbbbbnBBBBBBBBBBBBB"
};
